<?xml version="1.0" standalone="no"?>
<!DOCTYPE svg PUBLIC "-//W3C//DTD SVG 1.0//EN" "http://www.w3.org/TR/2001/REC-SVG-20010904/DTD/svg10.dtd">
<svg xmlns="http://www.w3.org/2000/svg" xmlns:xlink="http://www.w3.org/1999/xlink" id="body_1" width="114" height="80">

<g transform="matrix(0.18905473 0 0 0.18905473 -0 24.875622)">
	<g>
        <path d="M175.92188 51.472656L190.58594 51.472656L190.58594 110.90234L175.92188 110.90234L175.92188 51.472656zM196.4336 88.546875C 196.4336 73.828125 205.5664 65.00391 219.27344 65.00391C 232.97656 65.00391 242.11328 73.828125 242.11328 88.546875C 242.11328 103.26953 233.29688 112.18359 219.27344 112.18359C 205.25 112.18359 196.4336 103.58984 196.4336 88.546875zM227.58594 88.546875C 227.58594 80.45703 224.4336 75.703125 219.41016 75.703125C 214.38672 75.703125 211.27734 80.27344 211.27734 88.546875C 211.27734 96.82422 214.38672 101.34766 219.41016 101.34766C 224.4336 101.34766 227.67969 96.82422 227.67969 88.59375zM247.96094 113.96484L262.1211 113.96484C 262.76562 115.49219 263.89453 116.765625 265.32812 117.58984C 266.76172 118.41406 268.4297 118.74609 270.0703 118.53906C 275.6914 118.53906 278.61328 115.51953 278.61328 111.03906L278.61328 111.03906L278.61328 102.8125L278.66016 102.8125C 277.44922 105.375 275.4922 107.50781 273.04688 108.9375C 270.60156 110.36719 267.77734 111.01953 264.95312 110.8125C 254.21875 110.8125 247.09375 102.62891 247.09375 88.546875C 247.09375 74.46875 253.89844 65.69141 265.3672 65.69141C 268.26172 65.53516 271.13672 66.28516 273.58984 67.83203C 276.04297 69.37891 277.96094 71.64844 279.0703 74.33203L279.0703 74.33203L278.66016 74.33203L278.66016 66.05859L293.1875 66.05859L293.1875 110.58203C 293.1875 121.32422 283.6836 128.04688 269.70703 128.04688C 257.0078 128 248.875 122.19531 248.05078 114.01172zM278.66016 88.546875C 278.66016 81.37109 275.3711 76.84766 270.16406 76.84766C 264.95312 76.84766 261.7578 81.41797 261.7578 88.546875C 261.7578 95.67969 264.91016 99.88672 270.16406 99.88672C 275.41406 99.88672 278.66016 96 278.66016 88.546875zM298.98828 88.546875C 298.98828 73.828125 308.125 65.00391 321.82812 65.00391C 335.53125 65.00391 344.66797 73.828125 344.66797 88.546875C 344.66797 103.26953 335.8086 112.18359 321.82812 112.18359C 307.85156 112.18359 299.07812 103.58984 299.07812 88.546875zM330.14062 88.546875C 330.14062 80.45703 326.9453 75.703125 321.96484 75.703125C 316.98438 75.703125 313.83594 80.27344 313.83594 88.546875C 313.83594 96.82422 316.9414 101.34766 321.96484 101.34766C 326.9922 101.34766 330.23438 96.82422 330.23438 88.59375zM350.60938 55.222656C 350.54297 53.726562 350.9297 52.25 351.71094 50.972656C 352.4961 49.69922 353.64062 48.6875 355.0039 48.07422C 356.3672 47.45703 357.8828 47.26172 359.35547 47.51172C 360.82812 47.765625 362.1953 48.453125 363.27344 49.48828C 364.35547 50.523438 365.09766 51.85547 365.41406 53.320312C 365.73047 54.78125 365.60156 56.304688 365.04688 57.691406C 364.48828 59.08203 363.53125 60.273438 362.29297 61.109375C 361.0547 61.94922 359.59375 62.398438 358.10156 62.398438C 357.14453 62.42578 356.1953 62.257812 355.30078 61.914062C 354.41016 61.566406 353.59766 61.046875 352.91016 60.382812C 352.22266 59.71875 351.67188 58.92578 351.29297 58.046875C 350.91406 57.16797 350.71094 56.226562 350.69922 55.26953zM350.60938 66.01172L365.45312 66.01172L365.45312 111.08594L350.83594 111.08594zM418.85547 88.546875C 418.85547 103.22266 412.27734 111.72656 401.08594 111.72656C 398.22266 111.90234 395.3711 111.19531 392.91797 109.69922C 390.46875 108.203125 388.53516 105.99219 387.3828 103.359375L387.3828 103.359375L387.10938 103.359375L387.10938 125.578125L372.4453 125.578125L372.4453 66.14844L387.01562 66.14844L387.01562 74.19531L387.28906 74.19531C 388.40625 71.51172 390.3203 69.23828 392.76953 67.68359C 395.22266 66.12891 398.09375 65.37109 400.9961 65.50781C 412.5078 65.41797 419.1289 73.875 419.1289 88.59375zM403.91797 88.546875C 403.91797 81.41797 400.58203 76.80078 395.42188 76.80078C 390.26172 76.80078 387.01562 81.37109 386.96875 88.546875C 386.92578 95.72656 390.26172 100.25 395.42188 100.25C 400.58203 100.25 404.1914 96 404.1914 88.59375zM443.89062 64.96094C 456.1797 64.96094 463.8086 70.765625 463.89844 80.08984L463.89844 80.08984L450.51562 80.08984C 450.51562 76.84766 447.8203 74.83594 443.80078 74.83594C 439.77734 74.83594 437.85938 76.38672 437.85938 78.71875C 437.85938 81.05078 439.55078 81.78125 442.9297 82.46875L442.9297 82.46875L452.33984 84.38672C 461.47656 86.30859 465.1328 89.96484 465.1328 96.77734C 465.1328 105.921875 456.6797 112.13672 444.1172 112.13672C 431.5547 112.13672 423.3789 106.10156 422.78516 96.91406L422.78516 96.91406L436.9922 96.91406C 437.40234 100.25 440.0547 102.21875 444.34766 102.21875C 448.64062 102.21875 450.65234 100.84766 450.65234 98.421875C 450.65234 96 449.28125 95.58984 445.76172 94.85547L445.76172 94.85547L437.26562 93.07422C 428.44922 91.19922 423.83594 86.58203 423.83594 79.67969C 424.10938 70.71875 431.78516 65.00391 444.16406 65.00391zM514.2383 111.03906L500.03125 111.03906L500.03125 102.58203L499.7578 102.58203C 498.96484 105.40234 497.23438 107.87109 494.84766 109.57422C 492.46484 111.27734 489.5703 112.11719 486.64844 111.953125C 484.4414 112.02734 482.23828 111.62891 480.19922 110.79297C 478.15625 109.953125 476.3125 108.69141 474.78906 107.08984C 473.26172 105.48828 472.09766 103.58203 471.36328 101.5C 470.6289 99.41406 470.33984 97.19531 470.52344 94.99609L470.52344 94.99609L470.52344 66.05859L485.1875 66.05859L485.1875 91.83984C 485.1875 97.14453 487.97266 100.02344 492.54297 100.02344C 493.61328 100.015625 494.67188 99.77734 495.64453 99.32422C 496.6172 98.87109 497.48047 98.21875 498.17578 97.40234C 498.8711 96.58594 499.39062 95.63281 499.6875 94.60156C 499.97656 93.57031 500.05078 92.48828 499.89453 91.42969L499.89453 91.42969L499.89453 66.05859L514.5156 66.05859zM521.3203 66.01172L535.5742 66.01172L535.5742 74.69531L535.89453 74.69531C 536.6797 71.91406 538.3711 69.47266 540.6914 67.75C 543.0156 66.03125 545.84375 65.12891 548.73047 65.1875C 551.6289 64.9375 554.52344 65.77734 556.83203 67.54297C 559.14844 69.30859 560.72266 71.87891 561.2461 74.74219L561.2461 74.74219L561.8867 74.74219C 562.8008 71.86328 564.6367 69.36328 567.1172 67.63672C 569.59375 65.90625 572.5742 65.046875 575.58984 65.1875C 577.59766 65.11328 579.59766 65.46094 581.45703 66.21094C 583.3203 66.96094 585 68.09375 586.39453 69.54297C 587.78906 70.98828 588.85547 72.71094 589.53906 74.60156C 590.22266 76.48828 590.4961 78.5 590.34766 80.50391L590.34766 80.50391L590.34766 111.08594L575.58984 111.08594L575.58984 84.25C 575.58984 79.67969 573.4453 77.12109 569.28516 77.12109C 568.3633 77.10547 567.4492 77.28906 566.60547 77.66016C 565.7617 78.03125 565.0117 78.58203 564.39844 79.27344C 563.78516 79.96484 563.3281 80.77734 563.0586 81.66016C 562.7969 82.54297 562.72266 83.47266 562.84375 84.38672L562.84375 84.38672L562.84375 111.08594L548.8672 111.08594L548.8672 84.11328C 548.8672 79.54297 546.6289 77.12109 542.6094 77.12109C 541.6758 77.11328 540.7539 77.30469 539.90234 77.68359C 539.0508 78.0625 538.29297 78.61719 537.6719 79.31641C 537.0547 80.01172 536.59375 80.83594 536.3164 81.72656C 536.03906 82.61719 535.95703 83.55469 536.0742 84.48047L536.0742 84.48047L536.0742 111.08594L521.41406 111.08594z" stroke="none" fill="#394149" fill-rule="nonzero" />
        <path d="M146.91406 55.359375C 146.91406 46.26172 144.16797 37.375 139.03516 29.863281C 133.90234 22.355469 126.625 16.570312 118.15234 13.269531C 109.67969 9.96875 100.40625 9.304688 91.55078 11.367188C 82.69531 13.429688 74.66797 18.117188 68.52344 24.824219L68.52344 24.824219L11.511719 24.824219L11.511719 145.23438L131.88281 145.23438L131.88281 88.96094C 136.60938 84.73047 140.38672 79.55469 142.97656 73.76172C 145.5664 67.97266 146.91016 61.703125 146.91406 55.359375zM123.75391 55.359375C 123.76172 59.71875 122.47656 63.984375 120.0625 67.61328C 117.64844 71.24219 114.21484 74.07422 110.19141 75.75C 106.16797 77.42578 101.74219 77.86719 97.46484 77.02344C 93.19141 76.17578 89.265625 74.08203 86.17969 71.00391C 83.09766 67.921875 80.99609 63.996094 80.140625 59.722656C 79.28906 55.445312 79.72266 51.01172 81.38672 46.984375C 83.05078 42.95703 85.875 39.51172 89.49609 37.089844C 93.11719 34.664062 97.375 33.371094 101.734375 33.371094C 107.56641 33.371094 113.16016 35.6875 117.28516 39.808594C 121.41406 43.929688 123.73828 49.523438 123.75391 55.359375zM108.72266 122.05859L34.671875 122.05859L34.671875 48L57.23828 48C 56.804688 50.429688 56.57422 52.890625 56.554688 55.359375C 56.566406 67.34766 61.33203 78.83984 69.80078 87.31641C 78.26953 95.79297 89.75391 100.55859 101.734375 100.57031C 104.07422 100.55859 106.41406 100.359375 108.72266 99.97656z" stroke="none" fill="#394149" fill-rule="nonzero" />
	</g>
</g>
</svg>