<?xml version="1.0" encoding="UTF-8"?>
<svg xmlns="http://www.w3.org/2000/svg" xmlns:xlink="http://www.w3.org/1999/xlink" width="228px" height="160px" viewBox="0 0 603 160" version="1.1">
<g id="surface1">
<path style=" stroke:none;fill-rule:nonzero;fill:rgb(22.352941%,25.490196%,28.627451%);fill-opacity:1;" d="M 204.792969 115.222656 C 202.074219 115.371094 199.386719 114.597656 197.164062 113.027344 C 196.234375 112.335938 195.484375 111.433594 194.984375 110.390625 C 194.484375 109.34375 194.242188 108.195312 194.285156 107.039062 L 194.285156 64.660156 C 194.261719 64.480469 194.28125 64.300781 194.339844 64.128906 C 194.398438 63.957031 194.496094 63.804688 194.625 63.675781 C 194.75 63.546875 194.90625 63.449219 195.078125 63.390625 C 195.25 63.332031 195.429688 63.3125 195.609375 63.335938 L 203.285156 63.335938 C 204.152344 63.335938 204.5625 63.792969 204.5625 64.660156 L 204.5625 103.746094 C 204.5625 105.484375 205.339844 106.351562 206.9375 106.351562 C 207.617188 106.378906 208.292969 106.304688 208.949219 106.125 C 209.863281 106.125 210.363281 106.398438 210.410156 107.222656 L 211.09375 112.9375 C 211.128906 113.101562 211.125 113.273438 211.085938 113.441406 C 211.046875 113.605469 210.972656 113.761719 210.871094 113.894531 C 210.765625 114.027344 210.632812 114.140625 210.484375 114.21875 C 210.335938 114.296875 210.167969 114.34375 210 114.351562 C 208.316406 114.910156 206.5625 115.203125 204.792969 115.222656 Z M 204.792969 115.222656 "/>
<path style=" stroke:none;fill-rule:nonzero;fill:rgb(22.352941%,25.490196%,28.627451%);fill-opacity:1;" d="M 247.960938 110.328125 C 244.105469 113.519531 239.257812 115.261719 234.257812 115.261719 C 229.253906 115.261719 224.410156 113.519531 220.550781 110.328125 C 217.164062 106.90625 215.261719 102.28125 215.261719 97.460938 C 215.261719 92.640625 217.164062 88.015625 220.550781 84.59375 C 224.414062 81.421875 229.257812 79.6875 234.257812 79.6875 C 239.253906 79.6875 244.097656 81.421875 247.960938 84.59375 C 251.273438 88.046875 253.121094 92.652344 253.121094 97.4375 C 253.121094 102.226562 251.273438 106.828125 247.960938 110.285156 Z M 227.769531 104.296875 C 229.558594 105.917969 231.886719 106.816406 234.300781 106.816406 C 236.714844 106.816406 239.046875 105.917969 240.835938 104.296875 C 242.453125 102.433594 243.347656 100.046875 243.347656 97.574219 C 243.347656 95.105469 242.453125 92.71875 240.835938 90.855469 C 239.046875 89.234375 236.714844 88.335938 234.300781 88.335938 C 231.886719 88.335938 229.558594 89.234375 227.769531 90.855469 C 226.148438 92.71875 225.257812 95.105469 225.257812 97.574219 C 225.257812 100.046875 226.148438 102.433594 227.769531 104.296875 Z M 227.769531 104.296875 "/>
<path style=" stroke:none;fill-rule:nonzero;fill:rgb(22.352941%,25.490196%,28.627451%);fill-opacity:1;" d="M 295.378906 80.84375 C 296.246094 80.84375 296.65625 81.300781 296.65625 82.171875 L 296.65625 114.945312 C 296.738281 117.160156 296.324219 119.363281 295.445312 121.394531 C 294.570312 123.425781 293.25 125.238281 291.585938 126.695312 C 287.894531 129.847656 283.144531 131.480469 278.292969 131.265625 C 273.914062 131.421875 269.589844 130.222656 265.914062 127.839844 C 264.34375 126.808594 263 125.460938 261.972656 123.890625 C 260.941406 122.316406 260.246094 120.550781 259.929688 118.695312 C 259.929688 117.78125 259.929688 117.371094 261.164062 117.371094 L 268.835938 117.371094 C 269.164062 117.382812 269.480469 117.488281 269.746094 117.671875 C 270.015625 117.859375 270.222656 118.121094 270.34375 118.421875 C 270.84375 119.808594 271.835938 120.964844 273.132812 121.667969 C 274.710938 122.484375 276.46875 122.890625 278.246094 122.855469 C 279.320312 122.914062 280.394531 122.757812 281.40625 122.398438 C 282.417969 122.035156 283.347656 121.476562 284.140625 120.753906 C 284.867188 119.996094 285.429688 119.097656 285.796875 118.117188 C 286.167969 117.132812 286.335938 116.085938 286.289062 115.039062 L 286.289062 112.160156 C 283.539062 114.179688 280.195312 115.226562 276.785156 115.128906 C 274.398438 115.21875 272.019531 114.820312 269.789062 113.964844 C 267.5625 113.109375 265.527344 111.808594 263.8125 110.148438 C 260.519531 106.738281 258.679688 102.179688 258.679688 97.4375 C 258.679688 92.695312 260.519531 88.140625 263.8125 84.730469 C 265.535156 83.082031 267.574219 81.796875 269.800781 80.949219 C 272.027344 80.101562 274.402344 79.707031 276.785156 79.792969 C 280.292969 79.699219 283.730469 80.8125 286.515625 82.945312 L 286.515625 82.214844 C 286.496094 82.039062 286.511719 81.863281 286.570312 81.695312 C 286.625 81.527344 286.71875 81.375 286.839844 81.25 C 286.964844 81.121094 287.113281 81.023438 287.277344 80.960938 C 287.441406 80.898438 287.621094 80.875 287.796875 80.890625 Z M 277.652344 106.992188 C 278.832031 107.03125 280 106.808594 281.082031 106.339844 C 282.164062 105.875 283.128906 105.175781 283.914062 104.296875 C 285.429688 102.332031 286.253906 99.921875 286.253906 97.4375 C 286.253906 94.957031 285.429688 92.542969 283.914062 90.582031 C 283.132812 89.714844 282.171875 89.023438 281.101562 88.566406 C 280.027344 88.109375 278.867188 87.890625 277.699219 87.929688 C 276.507812 87.890625 275.324219 88.113281 274.230469 88.582031 C 273.132812 89.046875 272.148438 89.746094 271.351562 90.628906 C 269.667969 92.503906 268.78125 94.964844 268.882812 97.484375 C 268.800781 99.980469 269.667969 102.414062 271.304688 104.296875 C 272.105469 105.175781 273.089844 105.875 274.183594 106.339844 C 275.28125 106.804688 276.464844 107.027344 277.652344 106.992188 Z M 277.652344 106.992188 "/>
<path style=" stroke:none;fill-rule:nonzero;fill:rgb(22.352941%,25.490196%,28.627451%);fill-opacity:1;" d="M 336.082031 110.328125 C 332.21875 113.503906 327.375 115.234375 322.375 115.234375 C 317.378906 115.234375 312.535156 113.503906 308.671875 110.328125 C 305.359375 106.867188 303.507812 102.257812 303.507812 97.460938 C 303.507812 92.667969 305.359375 88.054688 308.671875 84.59375 C 312.539062 81.429688 317.382812 79.699219 322.375 79.699219 C 327.371094 79.699219 332.214844 81.429688 336.082031 84.59375 C 339.394531 88.046875 341.242188 92.652344 341.242188 97.4375 C 341.242188 102.226562 339.394531 106.828125 336.082031 110.285156 Z M 315.84375 104.296875 C 316.71875 105.128906 317.753906 105.78125 318.882812 106.210938 C 320.011719 106.644531 321.214844 106.847656 322.421875 106.808594 C 323.621094 106.839844 324.816406 106.636719 325.9375 106.203125 C 327.058594 105.773438 328.085938 105.125 328.953125 104.296875 C 330.546875 102.417969 331.421875 100.039062 331.421875 97.574219 C 331.421875 95.113281 330.546875 92.730469 328.953125 90.855469 C 328.085938 90.027344 327.058594 89.378906 325.9375 88.949219 C 324.816406 88.515625 323.621094 88.308594 322.421875 88.339844 C 321.214844 88.304688 320.011719 88.507812 318.882812 88.9375 C 317.753906 89.371094 316.71875 90.023438 315.84375 90.855469 C 314.25 92.730469 313.375 95.113281 313.375 97.574219 C 313.375 100.039062 314.25 102.417969 315.84375 104.296875 Z M 315.84375 104.296875 "/>
<path style=" stroke:none;fill-rule:nonzero;fill:rgb(22.352941%,25.490196%,28.627451%);fill-opacity:1;" d="M 357.734375 73.074219 C 356.527344 74.128906 354.976562 74.714844 353.371094 74.714844 C 351.765625 74.714844 350.21875 74.128906 349.007812 73.074219 C 348.460938 72.554688 348.027344 71.933594 347.726562 71.242188 C 347.429688 70.550781 347.277344 69.804688 347.277344 69.050781 C 347.277344 68.296875 347.429688 67.550781 347.726562 66.859375 C 348.027344 66.167969 348.460938 65.542969 349.007812 65.027344 C 350.230469 63.996094 351.773438 63.429688 353.371094 63.429688 C 354.96875 63.429688 356.515625 63.996094 357.734375 65.027344 C 358.28125 65.542969 358.71875 66.167969 359.015625 66.859375 C 359.3125 67.550781 359.46875 68.296875 359.46875 69.050781 C 359.46875 69.804688 359.3125 70.550781 359.015625 71.242188 C 358.71875 71.933594 358.28125 72.554688 357.734375 73.074219 Z M 358.695312 115.222656 C 355.976562 115.355469 353.296875 114.582031 351.066406 113.027344 C 350.148438 112.328125 349.414062 111.417969 348.921875 110.378906 C 348.429688 109.335938 348.191406 108.191406 348.234375 107.039062 L 348.234375 82.171875 C 348.210938 81.992188 348.230469 81.808594 348.289062 81.636719 C 348.347656 81.464844 348.445312 81.3125 348.570312 81.183594 C 348.699219 81.054688 348.855469 80.957031 349.023438 80.898438 C 349.195312 80.839844 349.378906 80.824219 349.558594 80.84375 L 357.230469 80.84375 C 358.101562 80.84375 358.511719 81.300781 358.511719 82.171875 L 358.511719 103.746094 C 358.511719 105.484375 359.289062 106.351562 360.839844 106.351562 C 361.535156 106.378906 362.226562 106.300781 362.894531 106.125 C 363.808594 106.125 364.3125 106.398438 364.359375 107.222656 L 365.042969 112.9375 C 365.078125 113.101562 365.074219 113.273438 365.035156 113.441406 C 364.996094 113.605469 364.921875 113.761719 364.816406 113.894531 C 364.714844 114.027344 364.582031 114.140625 364.433594 114.21875 C 364.28125 114.296875 364.117188 114.34375 363.945312 114.351562 C 362.25 114.910156 360.480469 115.203125 358.695312 115.222656 Z M 358.695312 115.222656 "/>
<path style=" stroke:none;fill-rule:nonzero;fill:rgb(22.352941%,25.490196%,28.627451%);fill-opacity:1;" d="M 393.273438 79.746094 C 395.671875 79.652344 398.0625 80.039062 400.308594 80.890625 C 402.550781 81.738281 404.605469 83.027344 406.339844 84.683594 C 409.570312 88.152344 411.367188 92.71875 411.367188 97.460938 C 411.367188 102.203125 409.570312 106.769531 406.339844 110.238281 C 404.613281 111.910156 402.5625 113.214844 400.316406 114.070312 C 398.070312 114.925781 395.675781 115.320312 393.273438 115.222656 C 389.855469 115.296875 386.5 114.253906 383.726562 112.25 L 383.726562 128.753906 C 383.726562 129.621094 383.269531 130.03125 382.402344 130.03125 L 374.726562 130.03125 C 374.554688 130.066406 374.371094 130.054688 374.203125 130.003906 C 374.03125 129.949219 373.878906 129.855469 373.75 129.730469 C 373.625 129.605469 373.53125 129.449219 373.480469 129.277344 C 373.425781 129.109375 373.417969 128.929688 373.449219 128.753906 L 373.449219 91.265625 C 373.503906 90.902344 373.46875 90.527344 373.355469 90.175781 C 373.238281 89.824219 373.039062 89.503906 372.777344 89.242188 C 372.515625 88.980469 372.195312 88.78125 371.84375 88.664062 C 371.492188 88.550781 371.121094 88.515625 370.753906 88.570312 L 369.246094 88.570312 C 368.242188 88.570312 367.738281 88.203125 367.738281 87.472656 L 367.738281 82.078125 C 367.714844 81.746094 367.804688 81.414062 367.996094 81.140625 C 368.1875 80.863281 368.46875 80.664062 368.789062 80.570312 C 370.371094 79.996094 372.042969 79.714844 373.722656 79.746094 C 375.398438 79.597656 377.082031 79.953125 378.554688 80.769531 C 380.027344 81.582031 381.226562 82.820312 381.992188 84.320312 C 383.460938 82.828125 385.222656 81.65625 387.164062 80.871094 C 389.101562 80.082031 391.183594 79.703125 393.273438 79.746094 Z M 386.148438 104.296875 C 386.964844 105.148438 387.941406 105.824219 389.023438 106.289062 C 390.109375 106.753906 391.273438 106.992188 392.453125 106.992188 C 393.628906 106.992188 394.796875 106.753906 395.878906 106.289062 C 396.964844 105.824219 397.941406 105.148438 398.757812 104.296875 C 400.472656 102.378906 401.375 99.871094 401.269531 97.300781 C 401.390625 94.730469 400.484375 92.214844 398.757812 90.308594 C 397.941406 89.457031 396.964844 88.777344 395.878906 88.316406 C 394.796875 87.851562 393.628906 87.613281 392.453125 87.613281 C 391.273438 87.613281 390.109375 87.851562 389.023438 88.316406 C 387.941406 88.777344 386.964844 89.457031 386.148438 90.308594 C 384.488281 92.25 383.621094 94.746094 383.726562 97.300781 C 383.632812 99.855469 384.5 102.347656 386.148438 104.296875 Z M 386.148438 104.296875 "/>
<path style=" stroke:none;fill-rule:nonzero;fill:rgb(22.352941%,25.490196%,28.627451%);fill-opacity:1;" d="M 432.925781 115.222656 C 428.824219 115.390625 424.757812 114.410156 421.1875 112.386719 C 419.753906 111.523438 418.53125 110.347656 417.613281 108.945312 C 416.695312 107.546875 416.105469 105.957031 415.886719 104.296875 C 415.886719 103.382812 416.207031 102.925781 417.210938 102.925781 L 423.925781 102.925781 C 424.246094 102.9375 424.558594 103.039062 424.824219 103.214844 C 425.089844 103.390625 425.300781 103.640625 425.433594 103.929688 C 426.394531 106.398438 428.90625 107.632812 432.925781 107.632812 C 434.328125 107.699219 435.726562 107.414062 436.992188 106.808594 C 437.429688 106.613281 437.804688 106.300781 438.078125 105.90625 C 438.351562 105.511719 438.511719 105.050781 438.546875 104.570312 C 438.546875 103.382812 437.816406 102.558594 436.351562 102.011719 C 434.617188 101.433594 432.828125 101.050781 431.007812 100.867188 C 428.855469 100.625 426.71875 100.242188 424.613281 99.722656 C 422.566406 99.261719 420.703125 98.195312 419.269531 96.660156 C 418.421875 95.621094 417.800781 94.414062 417.4375 93.125 C 417.078125 91.832031 416.988281 90.476562 417.171875 89.148438 C 417.355469 87.820312 417.8125 86.542969 418.511719 85.398438 C 419.207031 84.25 420.136719 83.261719 421.230469 82.488281 C 424.523438 80.390625 428.386719 79.367188 432.285156 79.5625 C 436.0625 79.4375 439.796875 80.371094 443.066406 82.261719 C 444.386719 83.007812 445.519531 84.039062 446.390625 85.28125 C 447.257812 86.523438 447.839844 87.945312 448.09375 89.4375 C 448.09375 90.351562 447.683594 90.808594 446.859375 90.808594 L 440.097656 90.808594 C 439.8125 90.828125 439.53125 90.757812 439.285156 90.609375 C 439.042969 90.464844 438.847656 90.246094 438.726562 89.988281 C 438.277344 88.90625 437.425781 88.035156 436.351562 87.5625 C 435.140625 86.929688 433.789062 86.617188 432.425781 86.648438 C 431.085938 86.578125 429.75 86.84375 428.542969 87.425781 C 428.117188 87.589844 427.75 87.878906 427.488281 88.253906 C 427.226562 88.628906 427.085938 89.074219 427.078125 89.53125 C 427.109375 90.15625 427.335938 90.753906 427.730469 91.238281 C 428.125 91.726562 428.667969 92.070312 429.273438 92.226562 C 431.027344 92.890625 432.851562 93.347656 434.707031 93.597656 C 436.84375 93.878906 438.964844 94.277344 441.058594 94.789062 C 443.105469 95.25 444.96875 96.316406 446.402344 97.851562 C 447.171875 98.695312 447.765625 99.683594 448.148438 100.757812 C 448.53125 101.832031 448.699219 102.972656 448.640625 104.113281 C 448.679688 105.691406 448.308594 107.257812 447.566406 108.652344 C 446.820312 110.042969 445.726562 111.222656 444.394531 112.066406 C 440.980469 114.261719 436.980469 115.359375 432.925781 115.222656 Z M 432.925781 115.222656 "/>
<path style=" stroke:none;fill-rule:nonzero;fill:rgb(22.352941%,25.490196%,28.627451%);fill-opacity:1;" d="M 496.925781 112.9375 C 496.953125 113.097656 496.945312 113.265625 496.910156 113.421875 C 496.867188 113.582031 496.800781 113.734375 496.699219 113.867188 C 496.601562 113.996094 496.480469 114.109375 496.335938 114.191406 C 496.195312 114.277344 496.039062 114.332031 495.875 114.351562 C 494.207031 114.898438 492.46875 115.191406 490.714844 115.222656 C 488.976562 115.402344 487.222656 115.128906 485.625 114.433594 C 484.023438 113.738281 482.628906 112.636719 481.578125 111.246094 C 478.351562 114.019531 474.175781 115.445312 469.929688 115.222656 C 467.957031 115.3125 465.988281 114.988281 464.144531 114.273438 C 462.304688 113.554688 460.632812 112.460938 459.238281 111.0625 C 457.855469 109.59375 456.78125 107.859375 456.082031 105.96875 C 455.386719 104.074219 455.074219 102.058594 455.171875 100.042969 L 455.171875 82.171875 C 455.171875 81.300781 455.585938 80.84375 456.453125 80.84375 L 464.128906 80.84375 C 464.996094 80.84375 465.40625 81.300781 465.40625 82.171875 L 465.40625 98.671875 C 465.324219 100.730469 466.023438 102.738281 467.371094 104.296875 C 468.042969 105.007812 468.859375 105.570312 469.765625 105.941406 C 470.667969 106.3125 471.648438 106.484375 472.625 106.445312 C 473.625 106.488281 474.625 106.332031 475.566406 105.988281 C 476.507812 105.640625 477.371094 105.113281 478.105469 104.433594 C 478.800781 103.714844 479.34375 102.863281 479.695312 101.925781 C 480.050781 100.992188 480.207031 99.992188 480.160156 98.992188 L 480.160156 82.171875 C 480.160156 81.300781 480.574219 80.84375 481.441406 80.84375 L 489.207031 80.84375 C 490.074219 80.84375 490.484375 81.300781 490.484375 82.171875 L 490.484375 103.703125 C 490.484375 105.484375 491.261719 106.351562 492.769531 106.351562 C 493.476562 106.378906 494.1875 106.304688 494.871094 106.125 C 495.042969 106.074219 495.226562 106.066406 495.402344 106.097656 C 495.578125 106.128906 495.742188 106.203125 495.890625 106.308594 C 496.035156 106.414062 496.15625 106.550781 496.242188 106.707031 C 496.324219 106.867188 496.371094 107.042969 496.378906 107.222656 Z M 496.925781 112.9375 "/>
<path style=" stroke:none;fill-rule:nonzero;fill:rgb(22.352941%,25.490196%,28.627451%);fill-opacity:1;" d="M 569.515625 112.9375 C 569.554688 113.097656 569.5625 113.269531 569.527344 113.4375 C 569.492188 113.601562 569.425781 113.757812 569.324219 113.890625 C 569.222656 114.027344 569.09375 114.140625 568.945312 114.21875 C 568.796875 114.300781 568.632812 114.34375 568.464844 114.351562 C 566.765625 114.90625 564.996094 115.199219 563.210938 115.222656 C 560.492188 115.363281 557.8125 114.589844 555.582031 113.027344 C 554.617188 112.359375 553.835938 111.460938 553.304688 110.417969 C 552.769531 109.371094 552.5 108.210938 552.523438 107.039062 L 552.523438 96.296875 C 552.617188 94.246094 551.933594 92.234375 550.601562 90.671875 C 549.964844 89.957031 549.167969 89.394531 548.285156 89.023438 C 547.402344 88.652344 546.445312 88.480469 545.488281 88.523438 C 544.625 88.492188 543.765625 88.65625 542.96875 89.003906 C 542.179688 89.351562 541.480469 89.875 540.917969 90.535156 C 539.710938 92.066406 539.097656 93.980469 539.183594 95.929688 L 539.183594 112.796875 C 539.183594 113.667969 538.769531 114.125 537.902344 114.125 L 530.183594 114.125 C 530.003906 114.148438 529.824219 114.128906 529.652344 114.070312 C 529.480469 114.011719 529.324219 113.914062 529.195312 113.785156 C 529.070312 113.65625 528.972656 113.503906 528.914062 113.332031 C 528.855469 113.160156 528.835938 112.976562 528.859375 112.796875 L 528.859375 96.296875 C 528.957031 94.269531 528.324219 92.273438 527.078125 90.671875 C 526.519531 90 525.820312 89.460938 525.03125 89.089844 C 524.246094 88.71875 523.382812 88.523438 522.507812 88.523438 C 521.578125 88.488281 520.648438 88.644531 519.78125 88.992188 C 518.914062 89.339844 518.132812 89.867188 517.484375 90.535156 C 516.175781 92.019531 515.503906 93.957031 515.609375 95.929688 L 515.609375 112.796875 C 515.632812 112.976562 515.617188 113.160156 515.554688 113.332031 C 515.496094 113.503906 515.402344 113.65625 515.273438 113.785156 C 515.144531 113.914062 514.988281 114.011719 514.820312 114.070312 C 514.648438 114.128906 514.464844 114.148438 514.285156 114.125 L 506.839844 114.125 C 505.972656 114.125 505.5625 113.667969 505.5625 112.796875 L 505.5625 91.265625 C 505.617188 90.902344 505.582031 90.527344 505.464844 90.175781 C 505.351562 89.824219 505.152344 89.503906 504.890625 89.242188 C 504.628906 88.980469 504.308594 88.78125 503.957031 88.664062 C 503.605469 88.550781 503.230469 88.515625 502.867188 88.570312 L 501.359375 88.570312 C 500.351562 88.570312 499.851562 88.203125 499.851562 87.472656 L 499.851562 82.078125 C 499.828125 81.746094 499.917969 81.414062 500.109375 81.140625 C 500.300781 80.863281 500.582031 80.664062 500.902344 80.570312 C 502.480469 79.996094 504.152344 79.714844 505.835938 79.746094 C 507.449219 79.609375 509.070312 79.929688 510.507812 80.675781 C 511.945312 81.417969 513.144531 82.554688 513.964844 83.953125 C 515.503906 82.492188 517.332031 81.363281 519.328125 80.640625 C 521.324219 79.914062 523.449219 79.613281 525.570312 79.746094 C 527.628906 79.648438 529.679688 80.03125 531.5625 80.875 C 533.445312 81.71875 535.097656 82.992188 536.394531 84.59375 C 537.90625 82.949219 539.765625 81.660156 541.835938 80.824219 C 543.90625 79.984375 546.136719 79.617188 548.363281 79.746094 C 550.355469 79.652344 552.347656 79.976562 554.210938 80.691406 C 556.074219 81.40625 557.769531 82.503906 559.191406 83.90625 C 560.578125 85.371094 561.652344 87.105469 562.351562 89 C 563.050781 90.890625 563.363281 92.910156 563.257812 94.925781 L 563.257812 103.746094 C 563.257812 105.484375 564.035156 106.351562 565.496094 106.351562 C 566.203125 106.386719 566.910156 106.308594 567.597656 106.125 C 568.542969 106.125 569.042969 106.488281 569.105469 107.222656 Z M 569.515625 112.9375 "/>
<path style=" stroke:none;fill-rule:nonzero;fill:rgb(22.352941%,25.490196%,28.627451%);fill-opacity:1;" d="M 33.851562 74.902344 C 37.21875 61.347656 45.027344 49.308594 56.023438 40.707031 C 67.023438 32.101562 80.578125 27.429688 94.539062 27.429688 C 108.496094 27.429688 122.054688 32.101562 133.054688 40.707031 C 144.050781 49.308594 151.855469 61.347656 155.226562 74.902344 L 149.746094 74.902344 C 140.496094 74.765625 131.441406 77.53125 123.84375 82.808594 C 123.40625 83.128906 122.945312 83.417969 122.472656 83.679688 L 121.832031 83.679688 C 121.359375 83.417969 120.902344 83.128906 120.464844 82.808594 C 112.800781 77.652344 103.773438 74.898438 94.539062 74.898438 C 85.304688 74.898438 76.277344 77.652344 68.613281 82.808594 C 68.175781 83.128906 67.71875 83.417969 67.242188 83.679688 L 66.605469 83.679688 C 66.128906 83.417969 65.671875 83.128906 65.234375 82.808594 C 57.636719 77.53125 48.578125 74.765625 39.332031 74.902344 Z M 139.878906 103.5625 C 142.691406 101.371094 146.179688 100.222656 149.746094 100.320312 L 157.101562 100.320312 L 157.101562 85.644531 L 149.746094 85.644531 C 143.464844 85.570312 137.328125 87.523438 132.25 91.222656 C 129.390625 93.332031 125.933594 94.46875 122.382812 94.46875 C 118.832031 94.46875 115.371094 93.332031 112.515625 91.222656 C 107.304688 87.59375 101.113281 85.648438 94.765625 85.648438 C 88.421875 85.648438 82.226562 87.59375 77.019531 91.222656 C 74.160156 93.332031 70.703125 94.46875 67.152344 94.46875 C 63.601562 94.46875 60.144531 93.332031 57.285156 91.222656 C 52.144531 87.476562 45.917969 85.519531 39.558594 85.644531 L 31.976562 85.644531 L 31.976562 100.320312 L 39.332031 100.320312 C 42.898438 100.222656 46.386719 101.371094 49.199219 103.5625 C 54.398438 107.195312 60.585938 109.140625 66.925781 109.140625 C 73.261719 109.140625 79.449219 107.195312 84.648438 103.5625 C 87.464844 101.378906 90.949219 100.230469 94.515625 100.320312 C 98.082031 100.214844 101.574219 101.363281 104.382812 103.5625 C 109.589844 107.191406 115.785156 109.136719 122.128906 109.136719 C 128.476562 109.136719 134.667969 107.191406 139.878906 103.5625 Z M 139.878906 129.804688 C 142.691406 127.613281 146.179688 126.464844 149.746094 126.558594 L 157.101562 126.558594 L 157.101562 111.882812 L 149.746094 111.882812 C 143.464844 111.808594 137.328125 113.765625 132.25 117.460938 C 129.390625 119.570312 125.933594 120.707031 122.382812 120.707031 C 118.832031 120.707031 115.371094 119.570312 112.515625 117.460938 C 107.304688 113.832031 101.113281 111.890625 94.765625 111.890625 C 88.421875 111.890625 82.226562 113.832031 77.019531 117.460938 C 74.160156 119.570312 70.703125 120.707031 67.152344 120.707031 C 63.601562 120.707031 60.144531 119.570312 57.285156 117.460938 C 52.144531 113.71875 45.917969 111.757812 39.558594 111.882812 L 31.976562 111.882812 L 31.976562 126.558594 L 39.332031 126.558594 C 42.898438 126.464844 46.386719 127.613281 49.199219 129.804688 C 54.398438 133.433594 60.585938 135.382812 66.925781 135.382812 C 73.261719 135.382812 79.449219 133.433594 84.648438 129.804688 C 87.464844 127.617188 90.949219 126.472656 94.515625 126.558594 C 98.082031 126.457031 101.574219 127.605469 104.382812 129.804688 C 109.589844 133.433594 115.785156 135.378906 122.128906 135.378906 C 128.476562 135.378906 134.667969 133.433594 139.878906 129.804688 Z M 139.878906 129.804688 "/>
</g>
</svg>
