<?xml version="1.0" encoding="UTF-8"?>
<svg xmlns="http://www.w3.org/2000/svg" xmlns:xlink="http://www.w3.org/1999/xlink" width="228px" height="160px" viewBox="0 0 630 160" version="1.1">
<g id="surface1">
<path style=" stroke:none;fill-rule:nonzero;fill:rgb(22.352941%,25.490196%,28.627451%);fill-opacity:1;" d="M 72.636719 31.292969 L 72.636719 11.292969 L 9.636719 11.292969 L 9.636719 148.707031 L 72.636719 148.707031 L 72.636719 128.707031 C 59.734375 128.707031 47.355469 123.574219 38.230469 114.441406 C 29.105469 105.304688 23.976562 92.917969 23.976562 80 C 23.976562 67.082031 29.105469 54.695312 38.230469 45.558594 C 47.355469 36.425781 59.734375 31.292969 72.636719 31.292969 Z M 72.636719 31.292969 "/>
<path style=" stroke:none;fill-rule:nonzero;fill:rgb(22.352941%,25.490196%,28.627451%);fill-opacity:1;" d="M 72.636719 31.292969 L 72.636719 128.707031 C 85.542969 128.707031 97.921875 123.574219 107.046875 114.441406 C 116.171875 105.304688 121.296875 92.917969 121.296875 80 C 121.296875 67.082031 116.171875 54.695312 107.046875 45.558594 C 97.921875 36.425781 85.542969 31.292969 72.636719 31.292969 Z M 72.636719 31.292969 "/>
<path style=" stroke:none;fill-rule:nonzero;fill:rgb(22.352941%,25.490196%,28.627451%);fill-opacity:1;" d="M 156.652344 43.53125 L 170.757812 43.53125 L 170.757812 111.53125 L 156.652344 111.53125 Z M 156.652344 43.53125 "/>
<path style=" stroke:none;fill-rule:nonzero;fill:rgb(22.352941%,25.490196%,28.627451%);fill-opacity:1;" d="M 178.65625 88.234375 C 178.65625 83.34375 180.109375 78.5625 182.828125 74.496094 C 185.542969 70.429688 189.40625 67.261719 193.925781 65.398438 C 198.445312 63.53125 203.414062 63.050781 208.207031 64.015625 C 213 64.980469 217.398438 67.347656 220.84375 70.816406 C 224.289062 74.285156 226.628906 78.699219 227.566406 83.503906 C 228.5 88.304688 227.992188 93.277344 226.101562 97.789062 C 224.210938 102.300781 221.027344 106.148438 216.949219 108.847656 C 212.871094 111.542969 208.085938 112.96875 203.199219 112.941406 C 199.957031 112.964844 196.742188 112.34375 193.746094 111.109375 C 190.746094 109.875 188.023438 108.054688 185.738281 105.753906 C 183.453125 103.453125 181.648438 100.714844 180.433594 97.707031 C 179.214844 94.699219 178.613281 91.480469 178.65625 88.234375 Z M 214.011719 88.234375 C 213.957031 86.125 213.28125 84.078125 212.070312 82.351562 C 210.859375 80.625 209.167969 79.296875 207.203125 78.527344 C 205.238281 77.757812 203.09375 77.585938 201.035156 78.03125 C 198.972656 78.476562 197.089844 79.519531 195.617188 81.03125 C 194.148438 82.542969 193.152344 84.453125 192.761719 86.527344 C 192.371094 88.597656 192.601562 90.742188 193.417969 92.6875 C 194.238281 94.628906 195.609375 96.289062 197.367188 97.457031 C 199.125 98.625 201.183594 99.246094 203.292969 99.246094 C 204.726562 99.273438 206.152344 99.007812 207.480469 98.457031 C 208.808594 97.910156 210.007812 97.09375 211.003906 96.058594 C 212 95.027344 212.773438 93.796875 213.277344 92.453125 C 213.777344 91.105469 213.996094 89.671875 213.917969 88.234375 Z M 214.011719 88.234375 "/>
<path style=" stroke:none;fill-rule:nonzero;fill:rgb(22.352941%,25.490196%,28.627451%);fill-opacity:1;" d="M 283.546875 64.941406 L 283.546875 109.222656 C 283.546875 124.847656 271.324219 131.480469 258.957031 131.480469 C 254.597656 131.839844 250.222656 130.972656 246.328125 128.976562 C 242.429688 126.984375 239.167969 123.9375 236.910156 120.1875 L 248.804688 113.316406 C 249.765625 115.261719 251.300781 116.867188 253.199219 117.917969 C 255.097656 118.96875 257.269531 119.417969 259.429688 119.199219 C 260.804688 119.371094 262.199219 119.234375 263.515625 118.800781 C 264.832031 118.367188 266.035156 117.648438 267.042969 116.695312 C 268.046875 115.742188 268.832031 114.578125 269.335938 113.285156 C 269.839844 111.996094 270.054688 110.605469 269.960938 109.222656 L 269.960938 104.941406 C 268.320312 106.933594 266.234375 108.515625 263.878906 109.558594 C 261.519531 110.605469 258.949219 111.085938 256.371094 110.964844 C 250.136719 110.964844 244.160156 108.484375 239.75 104.074219 C 235.339844 99.660156 232.863281 93.675781 232.863281 87.433594 C 232.863281 81.195312 235.339844 75.210938 239.75 70.796875 C 244.160156 66.386719 250.136719 63.90625 256.371094 63.90625 C 258.949219 63.785156 261.519531 64.265625 263.878906 65.3125 C 266.234375 66.355469 268.320312 67.9375 269.960938 69.929688 L 269.960938 65.222656 Z M 269.960938 87.292969 C 270.054688 85.042969 269.472656 82.816406 268.289062 80.894531 C 267.109375 78.976562 265.382812 77.457031 263.328125 76.53125 C 261.277344 75.601562 258.996094 75.3125 256.777344 75.691406 C 254.558594 76.074219 252.503906 77.109375 250.878906 78.667969 C 249.253906 80.226562 248.132812 82.238281 247.65625 84.441406 C 247.179688 86.644531 247.375 88.9375 248.214844 91.03125 C 249.050781 93.121094 250.496094 94.914062 252.359375 96.175781 C 254.226562 97.441406 256.425781 98.117188 258.675781 98.117188 C 260.144531 98.222656 261.621094 98.019531 263.003906 97.519531 C 264.390625 97.019531 265.65625 96.234375 266.71875 95.214844 C 267.78125 94.195312 268.621094 92.960938 269.179688 91.597656 C 269.738281 90.234375 270.003906 88.765625 269.960938 87.292969 Z M 269.960938 87.292969 "/>
<path style=" stroke:none;fill-rule:nonzero;fill:rgb(22.352941%,25.490196%,28.627451%);fill-opacity:1;" d="M 291.492188 88.234375 C 291.492188 83.347656 292.941406 78.570312 295.65625 74.503906 C 298.371094 70.441406 302.226562 67.273438 306.742188 65.40625 C 311.253906 63.535156 316.21875 63.050781 321.007812 64.007812 C 325.796875 64.964844 330.195312 67.324219 333.644531 70.78125 C 337.09375 74.242188 339.441406 78.648438 340.390625 83.445312 C 341.335938 88.238281 340.839844 93.207031 338.964844 97.722656 C 337.089844 102.234375 333.917969 106.089844 329.855469 108.800781 C 325.789062 111.507812 321.011719 112.949219 316.128906 112.941406 C 312.878906 112.972656 309.660156 112.355469 306.652344 111.125 C 303.644531 109.894531 300.914062 108.074219 298.621094 105.773438 C 296.328125 103.472656 294.515625 100.734375 293.289062 97.722656 C 292.066406 94.710938 291.453125 91.484375 291.492188 88.234375 Z M 326.847656 88.234375 C 326.792969 86.125 326.117188 84.078125 324.902344 82.347656 C 323.6875 80.621094 321.992188 79.289062 320.027344 78.523438 C 318.0625 77.753906 315.914062 77.585938 313.851562 78.035156 C 311.789062 78.484375 309.90625 79.53125 308.4375 81.046875 C 306.96875 82.5625 305.980469 84.480469 305.59375 86.554688 C 305.207031 88.632812 305.441406 90.777344 306.269531 92.71875 C 307.09375 94.664062 308.476562 96.316406 310.238281 97.480469 C 312 98.640625 314.066406 99.253906 316.175781 99.246094 C 317.609375 99.273438 319.035156 99.007812 320.363281 98.457031 C 321.691406 97.910156 322.890625 97.09375 323.886719 96.058594 C 324.882812 95.027344 325.65625 93.796875 326.160156 92.453125 C 326.660156 91.105469 326.878906 89.671875 326.800781 88.234375 Z M 326.847656 88.234375 "/>
<path style=" stroke:none;fill-rule:nonzero;fill:rgb(22.352941%,25.490196%,28.627451%);fill-opacity:1;" d="M 347.300781 52.46875 C 347.300781 50.8125 347.789062 49.195312 348.710938 47.816406 C 349.628906 46.4375 350.9375 45.367188 352.464844 44.730469 C 353.996094 44.097656 355.675781 43.933594 357.300781 44.253906 C 358.921875 44.578125 360.414062 45.375 361.585938 46.546875 C 362.757812 47.71875 363.554688 49.210938 363.875 50.835938 C 364.199219 52.460938 364.03125 54.144531 363.398438 55.675781 C 362.765625 57.207031 361.691406 58.515625 360.316406 59.433594 C 358.941406 60.355469 357.324219 60.847656 355.667969 60.847656 C 353.457031 60.824219 351.339844 59.933594 349.777344 58.367188 C 348.214844 56.800781 347.324219 54.683594 347.300781 52.46875 Z M 348.664062 64.941406 L 362.765625 64.941406 L 362.765625 111.53125 L 348.664062 111.53125 Z M 348.664062 64.941406 "/>
<path style=" stroke:none;fill-rule:nonzero;fill:rgb(22.352941%,25.490196%,28.627451%);fill-opacity:1;" d="M 423.132812 88.234375 C 423.292969 91.332031 422.835938 94.433594 421.792969 97.355469 C 420.75 100.277344 419.140625 102.960938 417.054688 105.257812 C 414.972656 107.554688 412.453125 109.414062 409.648438 110.734375 C 406.84375 112.050781 403.804688 112.800781 400.707031 112.941406 C 398.082031 113.117188 395.445312 112.695312 393.003906 111.710938 C 390.5625 110.722656 388.375 109.199219 386.605469 107.246094 L 386.605469 130.257812 L 372.5 130.257812 L 372.5 64.941406 L 386.605469 64.941406 L 386.605469 69.316406 C 388.378906 67.371094 390.566406 65.855469 393.007812 64.875 C 395.453125 63.898438 398.082031 63.484375 400.707031 63.671875 C 403.792969 63.808594 406.820312 64.554688 409.613281 65.863281 C 412.410156 67.175781 414.921875 69.023438 417.003906 71.304688 C 419.085938 73.585938 420.699219 76.253906 421.75 79.160156 C 422.804688 82.066406 423.273438 85.148438 423.132812 88.234375 Z M 409.03125 88.234375 C 408.972656 86.050781 408.273438 83.929688 407.019531 82.140625 C 405.765625 80.351562 404.011719 78.96875 401.976562 78.175781 C 399.941406 77.378906 397.71875 77.199219 395.585938 77.664062 C 393.449219 78.128906 391.5 79.210938 389.976562 80.78125 C 388.457031 82.347656 387.429688 84.332031 387.03125 86.480469 C 386.628906 88.632812 386.871094 90.851562 387.726562 92.863281 C 388.582031 94.875 390.011719 96.589844 391.835938 97.792969 C 393.660156 98.996094 395.796875 99.632812 397.980469 99.625 C 399.476562 99.6875 400.96875 99.433594 402.359375 98.878906 C 403.753906 98.324219 405.011719 97.480469 406.054688 96.40625 C 407.097656 95.332031 407.902344 94.046875 408.414062 92.640625 C 408.929688 91.230469 409.136719 89.730469 409.03125 88.234375 Z M 409.03125 88.234375 "/>
<path style=" stroke:none;fill-rule:nonzero;fill:rgb(22.352941%,25.490196%,28.627451%);fill-opacity:1;" d="M 466.058594 97.554688 C 466.058594 108.28125 456.65625 112.847656 446.6875 112.847656 C 442.625 113.214844 438.542969 112.351562 434.972656 110.371094 C 431.402344 108.390625 428.507812 105.386719 426.660156 101.742188 L 438.789062 94.871094 C 439.269531 96.550781 440.3125 98.011719 441.742188 99.015625 C 443.171875 100.015625 444.902344 100.496094 446.640625 100.375 C 449.980469 100.375 451.671875 99.339844 451.671875 97.457031 C 451.671875 92.328125 428.777344 95.058594 428.777344 78.917969 C 428.777344 68.753906 437.332031 63.671875 447.019531 63.671875 C 450.699219 63.503906 454.355469 64.339844 457.601562 66.089844 C 460.847656 67.839844 463.558594 70.433594 465.449219 73.601562 L 453.316406 80 C 452.78125 78.785156 451.90625 77.753906 450.796875 77.027344 C 449.6875 76.300781 448.390625 75.910156 447.066406 75.90625 C 444.621094 75.90625 443.164062 76.847656 443.164062 78.492188 C 443.164062 83.859375 466.058594 80.328125 466.058594 97.554688 Z M 466.058594 97.554688 "/>
<path style=" stroke:none;fill-rule:nonzero;fill:rgb(22.352941%,25.490196%,28.627451%);fill-opacity:1;" d="M 517.164062 64.941406 L 517.164062 111.53125 L 503.058594 111.53125 L 503.058594 107.152344 C 501.457031 109.089844 499.421875 110.625 497.121094 111.628906 C 494.816406 112.632812 492.3125 113.082031 489.800781 112.941406 C 480.398438 112.941406 472.359375 106.210938 472.359375 93.648438 L 472.359375 64.941406 L 486.464844 64.941406 L 486.464844 91.53125 C 486.351562 92.640625 486.480469 93.761719 486.847656 94.820312 C 487.214844 95.875 487.804688 96.839844 488.574219 97.644531 C 489.351562 98.449219 490.289062 99.078125 491.328125 99.484375 C 492.367188 99.890625 493.484375 100.066406 494.597656 100 C 499.675781 100 503.246094 96.988281 503.246094 90.589844 L 503.246094 64.941406 Z M 517.164062 64.941406 "/>
<path style=" stroke:none;fill-rule:nonzero;fill:rgb(22.352941%,25.490196%,28.627451%);fill-opacity:1;" d="M 597.089844 82.917969 L 597.089844 111.53125 L 582.984375 111.53125 L 582.984375 84.140625 C 582.984375 79.433594 580.773438 76.519531 576.308594 76.519531 C 571.84375 76.519531 569.023438 79.765625 569.023438 85.269531 L 569.023438 111.53125 L 554.917969 111.53125 L 554.917969 84.140625 C 554.917969 79.433594 552.707031 76.519531 548.242188 76.519531 C 543.773438 76.519531 540.953125 79.765625 540.953125 85.269531 L 540.953125 111.53125 L 526.847656 111.53125 L 526.847656 64.941406 L 540.953125 64.941406 L 540.953125 69.222656 C 542.414062 67.332031 544.320312 65.832031 546.507812 64.863281 C 548.6875 63.894531 551.082031 63.484375 553.460938 63.671875 C 555.84375 63.546875 558.222656 64.042969 560.355469 65.117188 C 562.492188 66.191406 564.3125 67.800781 565.636719 69.789062 C 567.1875 67.710938 569.238281 66.058594 571.597656 64.988281 C 573.953125 63.917969 576.546875 63.464844 579.128906 63.671875 C 590.132812 63.671875 597.089844 71.292969 597.089844 82.917969 Z M 597.089844 82.917969 "/>
<path style=" stroke:none;fill-rule:nonzero;fill:rgb(22.352941%,25.490196%,28.627451%);fill-opacity:1;" d="M 608.9375 64.660156 C 614.648438 64.660156 619.28125 60.023438 619.28125 54.304688 C 619.28125 48.589844 614.648438 43.953125 608.9375 43.953125 C 603.226562 43.953125 598.59375 48.589844 598.59375 54.304688 C 598.59375 60.023438 603.226562 64.660156 608.9375 64.660156 Z M 608.9375 64.660156 "/>
</g>
</svg>
