<?xml version="1.0" encoding="UTF-8"?>
<svg xmlns="http://www.w3.org/2000/svg" xmlns:xlink="http://www.w3.org/1999/xlink" width="228px" height="160px" viewBox="0 0 603 160" version="1.1">
<g id="surface1">
<path style=" stroke:none;fill-rule:nonzero;fill:rgb(22.352941%,25.490196%,28.627451%);fill-opacity:1;" d="M 139.421875 56 C 141.066406 56 141.613281 56.59375 141.613281 58.195312 L 141.613281 94.398438 L 160.207031 94.398438 C 161.804688 94.398438 162.398438 94.996094 162.398438 96.59375 L 162.398438 99.792969 C 162.398438 101.394531 161.804688 101.988281 160.207031 101.988281 L 135.71875 101.988281 C 134.121094 101.988281 133.480469 101.394531 133.480469 99.792969 L 133.480469 58.195312 C 133.480469 56.59375 134.121094 56 135.71875 56 Z M 139.421875 56 "/>
<path style=" stroke:none;fill-rule:nonzero;fill:rgb(22.352941%,25.490196%,28.627451%);fill-opacity:1;" d="M 178.617188 71.953125 C 178.617188 61.394531 185.285156 55.039062 196.886719 55.039062 C 208.492188 55.039062 215.160156 61.394531 215.160156 71.953125 L 215.160156 86.035156 C 215.160156 96.59375 208.445312 102.949219 196.886719 102.949219 C 185.332031 102.949219 178.617188 96.59375 178.617188 86.035156 Z M 207.488281 71.953125 C 207.488281 66.011719 203.785156 62.8125 197.117188 62.8125 C 190.449219 62.8125 186.792969 66.058594 186.792969 71.953125 L 186.792969 86.125 C 186.792969 92.113281 190.449219 95.269531 197.117188 95.269531 C 203.785156 95.269531 207.488281 91.976562 207.488281 86.125 Z M 207.488281 71.953125 "/>
<path style=" stroke:none;fill-rule:nonzero;fill:rgb(22.352941%,25.490196%,28.627451%);fill-opacity:1;" d="M 269.570312 76.800781 C 271.351562 76.800781 271.761719 77.394531 271.761719 78.996094 L 271.761719 87.679688 C 271.808594 89.726562 271.398438 91.757812 270.5625 93.625 C 269.722656 95.492188 268.480469 97.144531 266.917969 98.46875 C 263.042969 101.554688 258.15625 103.089844 253.214844 102.765625 C 241.382812 102.765625 234.941406 96.410156 234.941406 85.851562 L 234.941406 71.679688 C 234.941406 61.257812 241.609375 54.855469 253.214844 54.855469 C 262.351562 54.855469 268.289062 58.46875 270.800781 65.691406 C 270.941406 65.964844 271.019531 66.261719 271.023438 66.570312 C 271.027344 66.875 270.957031 67.175781 270.824219 67.453125 C 270.691406 67.726562 270.496094 67.96875 270.253906 68.152344 C 270.011719 68.339844 269.730469 68.46875 269.429688 68.527344 L 265.867188 69.761719 C 264.316406 70.308594 263.675781 69.988281 263.128906 68.386719 C 262.371094 66.4375 260.984375 64.792969 259.191406 63.714844 C 257.394531 62.640625 255.292969 62.191406 253.214844 62.445312 C 246.5 62.445312 242.84375 65.691406 242.84375 71.589844 L 242.84375 86.125 C 242.84375 92.113281 246.542969 95.269531 253.214844 95.269531 C 259.882812 95.269531 263.996094 92.207031 263.996094 87.726562 L 263.996094 84.34375 L 254.082031 84.34375 C 252.4375 84.34375 251.84375 83.703125 251.84375 82.101562 L 251.84375 78.996094 C 251.84375 77.394531 252.4375 76.800781 254.082031 76.800781 Z M 269.570312 76.800781 "/>
<path style=" stroke:none;fill-rule:nonzero;fill:rgb(22.352941%,25.490196%,28.627451%);fill-opacity:1;" d="M 290.628906 71.953125 C 290.628906 61.394531 297.296875 55.039062 308.902344 55.039062 C 320.503906 55.039062 327.171875 61.394531 327.171875 71.953125 L 327.171875 86.035156 C 327.171875 96.59375 320.457031 102.949219 308.902344 102.949219 C 297.34375 102.949219 290.628906 96.59375 290.628906 86.035156 Z M 319.453125 71.953125 C 319.453125 66.011719 315.753906 62.8125 309.128906 62.8125 C 302.503906 62.8125 298.757812 66.058594 298.757812 71.953125 L 298.757812 86.125 C 298.757812 92.113281 302.460938 95.269531 309.128906 95.269531 C 315.796875 95.269531 319.453125 91.976562 319.453125 86.125 Z M 319.453125 71.953125 "/>
<path style=" stroke:none;fill-rule:nonzero;fill:rgb(22.352941%,25.490196%,28.627451%);fill-opacity:1;" d="M 348.6875 57.324219 C 348.6875 56.320312 349.007812 56 350.015625 56 L 352.117188 56 C 353.121094 56 353.347656 56.320312 353.347656 57.324219 L 353.347656 100.664062 C 353.347656 101.667969 353.347656 101.988281 352.117188 101.988281 L 350.015625 101.988281 C 349.007812 101.988281 348.6875 101.667969 348.6875 100.664062 Z M 348.6875 57.324219 "/>
<path style=" stroke:none;fill-rule:nonzero;fill:rgb(22.352941%,25.490196%,28.627451%);fill-opacity:1;" d="M 394.964844 56 C 398.769531 56 402.417969 57.511719 405.109375 60.203125 C 407.796875 62.894531 409.308594 66.546875 409.308594 70.355469 C 409.308594 74.160156 407.796875 77.8125 405.109375 80.503906 C 402.417969 83.195312 398.769531 84.707031 394.964844 84.707031 L 381.261719 84.707031 L 381.261719 100.664062 C 381.261719 101.667969 381.03125 101.988281 380.074219 101.988281 L 377.925781 101.988281 C 376.964844 101.988281 376.601562 101.667969 376.601562 100.664062 L 376.601562 57.324219 C 376.601562 56.320312 376.964844 56 377.925781 56 Z M 394.554688 80.183594 C 395.863281 80.183594 397.15625 79.925781 398.363281 79.425781 C 399.574219 78.921875 400.671875 78.1875 401.597656 77.265625 C 402.519531 76.339844 403.253906 75.238281 403.753906 74.03125 C 404.253906 72.820312 404.511719 71.527344 404.511719 70.21875 C 404.511719 68.910156 404.253906 67.613281 403.753906 66.402344 C 403.253906 65.195312 402.519531 64.09375 401.597656 63.171875 C 400.671875 62.246094 399.574219 61.511719 398.363281 61.011719 C 397.15625 60.507812 395.863281 60.25 394.554688 60.25 L 380.847656 60.25 L 380.847656 80.183594 Z M 394.554688 80.183594 "/>
<path style=" stroke:none;fill-rule:nonzero;fill:rgb(22.352941%,25.490196%,28.627451%);fill-opacity:1;" d="M 444.988281 55.085938 C 448.515625 54.695312 452.070312 55.457031 455.132812 57.25 C 458.191406 59.046875 460.597656 61.78125 461.980469 65.050781 C 462.34375 65.78125 461.980469 66.378906 461.25 66.742188 L 459.238281 67.65625 C 458.417969 67.976562 458.097656 67.929688 457.59375 67.0625 C 456.558594 64.636719 454.78125 62.601562 452.511719 61.253906 C 450.246094 59.90625 447.609375 59.316406 444.988281 59.566406 C 437.265625 59.566406 433.0625 62.628906 433.0625 68.113281 C 433.019531 69.789062 433.582031 71.425781 434.648438 72.722656 C 435.714844 74.015625 437.210938 74.878906 438.863281 75.152344 C 441.320312 75.957031 443.871094 76.449219 446.449219 76.617188 C 449.570312 76.785156 452.648438 77.414062 455.585938 78.492188 C 457.835938 79.203125 459.773438 80.667969 461.070312 82.644531 C 462.367188 84.617188 462.949219 86.976562 462.710938 89.324219 C 462.710938 97.875 456.5 103.039062 445.078125 103.039062 C 441.332031 103.46875 437.550781 102.601562 434.367188 100.578125 C 431.183594 98.558594 428.789062 95.503906 427.582031 91.929688 C 427.5 91.769531 427.457031 91.589844 427.453125 91.40625 C 427.449219 91.226562 427.488281 91.046875 427.5625 90.878906 C 427.636719 90.714844 427.746094 90.566406 427.882812 90.449219 C 428.019531 90.328125 428.183594 90.242188 428.359375 90.195312 L 430.367188 89.460938 C 430.527344 89.398438 430.695312 89.367188 430.867188 89.371094 C 431.039062 89.375 431.207031 89.417969 431.363281 89.488281 C 431.515625 89.5625 431.652344 89.667969 431.765625 89.796875 C 431.878906 89.925781 431.960938 90.078125 432.011719 90.238281 C 433.035156 92.824219 434.851562 95.011719 437.199219 96.492188 C 439.550781 97.972656 442.308594 98.664062 445.078125 98.46875 C 453.710938 98.46875 457.960938 95.453125 457.960938 89.324219 C 458.042969 87.714844 457.550781 86.128906 456.570312 84.847656 C 455.589844 83.566406 454.1875 82.675781 452.617188 82.332031 C 450.25 81.625 447.8125 81.195312 445.351562 81.050781 L 440.417969 80.410156 C 438.875 80.082031 437.347656 79.671875 435.851562 79.175781 C 434.371094 78.730469 432.988281 78 431.785156 77.027344 C 430.574219 75.929688 429.617188 74.578125 428.984375 73.070312 C 428.355469 71.5625 428.0625 69.933594 428.128906 68.296875 C 428.449219 60.296875 434.433594 55.085938 444.988281 55.085938 Z M 444.988281 55.085938 "/>
<path style=" stroke:none;fill-rule:nonzero;fill:rgb(22.352941%,25.490196%,28.627451%);fill-opacity:1;" d="M 487.332031 86.355469 C 487.527344 89.585938 488.945312 92.625 491.304688 94.84375 C 493.660156 97.066406 496.777344 98.300781 500.011719 98.300781 C 503.246094 98.300781 506.359375 97.066406 508.71875 94.84375 C 511.074219 92.625 512.492188 89.585938 512.6875 86.355469 L 512.6875 57.324219 C 512.6875 56.320312 513.007812 56 514.011719 56 L 516.113281 56 C 517.117188 56 517.4375 56.320312 517.4375 57.324219 L 517.4375 86.308594 C 517.4375 96.6875 511.316406 102.949219 500.03125 102.949219 C 488.75 102.949219 482.628906 96.6875 482.628906 86.308594 L 482.628906 57.324219 C 482.628906 56.320312 482.949219 56 483.90625 56 L 486.054688 56 C 487.015625 56 487.332031 56.320312 487.332031 57.324219 Z M 487.332031 86.355469 "/>
<path style=" stroke:none;fill-rule:nonzero;fill:rgb(22.352941%,25.490196%,28.627451%);fill-opacity:1;" d="M 580.480469 56 C 581.484375 56 581.804688 56.320312 581.804688 57.324219 L 581.804688 100.664062 C 581.804688 101.667969 581.484375 101.988281 580.480469 101.988281 L 578.558594 101.988281 C 577.601562 101.988281 577.28125 101.667969 577.28125 100.664062 L 577.28125 74.285156 C 577.28125 70.449219 577.542969 66.613281 578.058594 62.8125 L 577.785156 62.8125 C 576.359375 66.289062 574.691406 69.664062 572.804688 72.914062 L 562.984375 90.238281 C 562.863281 90.539062 562.652344 90.796875 562.382812 90.976562 C 562.113281 91.15625 561.800781 91.25 561.476562 91.246094 L 560.195312 91.246094 C 559.867188 91.246094 559.546875 91.152344 559.269531 90.976562 C 558.996094 90.796875 558.777344 90.539062 558.644531 90.238281 L 548.683594 72.730469 C 546.917969 69.527344 545.390625 66.195312 544.117188 62.765625 L 543.84375 62.765625 C 544.308594 66.601562 544.554688 70.464844 544.574219 74.332031 L 544.574219 100.664062 C 544.574219 101.667969 544.253906 101.988281 543.25 101.988281 L 541.464844 101.988281 C 540.460938 101.988281 540.140625 101.667969 540.140625 100.664062 L 540.140625 57.324219 C 540.140625 56.320312 540.460938 56 541.464844 56 L 543.109375 56 C 543.484375 55.964844 543.863281 56.046875 544.1875 56.234375 C 544.519531 56.421875 544.777344 56.710938 544.9375 57.050781 L 560.925781 85.484375 L 576.824219 57.324219 C 577.328125 56.367188 577.601562 56.230469 578.605469 56.230469 Z M 580.480469 56 "/>
<path style=" stroke:none;fill-rule:nonzero;fill:rgb(22.352941%,25.490196%,28.627451%);fill-opacity:1;" d="M 58.152344 95.039062 L 58.152344 128.089844 C 58.152344 129.359375 57.648438 130.574219 56.753906 131.46875 C 55.859375 132.367188 54.644531 132.867188 53.378906 132.867188 C 52.113281 132.867188 50.898438 132.367188 50.003906 131.46875 C 49.109375 130.574219 48.605469 129.359375 48.605469 128.089844 L 48.605469 95.085938 C 49.933594 96.058594 51.527344 96.597656 53.171875 96.640625 C 54.96875 96.691406 56.722656 96.125 58.152344 95.039062 Z M 98.808594 85.484375 C 97.597656 85.484375 96.4375 85.96875 95.578125 86.824219 C 94.722656 87.683594 94.242188 88.84375 94.242188 90.058594 L 94.242188 95.816406 C 94.242188 97.085938 94.746094 98.300781 95.640625 99.195312 C 96.535156 100.089844 97.75 100.59375 99.015625 100.59375 C 100.28125 100.59375 101.496094 100.089844 102.390625 99.195312 C 103.285156 98.300781 103.789062 97.085938 103.789062 95.816406 L 103.789062 90.285156 C 103.824219 89.628906 103.71875 88.976562 103.476562 88.363281 C 103.238281 87.753906 102.871094 87.199219 102.398438 86.746094 C 101.925781 86.289062 101.359375 85.941406 100.742188 85.722656 C 100.121094 85.507812 99.464844 85.425781 98.808594 85.484375 Z M 38.234375 107.566406 C 36.59375 107.515625 35 106.976562 33.667969 106.011719 L 33.667969 139.152344 C 33.667969 140.425781 34.171875 141.648438 35.074219 142.546875 C 35.972656 143.449219 37.191406 143.953125 38.464844 143.953125 C 39.734375 143.953125 40.957031 143.449219 41.855469 142.546875 C 42.753906 141.648438 43.261719 140.425781 43.261719 139.152344 L 43.261719 106.238281 C 41.769531 107.203125 40.007812 107.667969 38.234375 107.566406 Z M 83.917969 75.566406 C 83.296875 75.535156 82.679688 75.628906 82.097656 75.847656 C 81.519531 76.0625 80.988281 76.394531 80.539062 76.820312 C 80.089844 77.25 79.734375 77.761719 79.488281 78.332031 C 79.246094 78.902344 79.121094 79.515625 79.121094 80.136719 L 79.121094 105.601562 C 79.121094 106.875 79.625 108.09375 80.527344 108.996094 C 81.425781 109.894531 82.644531 110.398438 83.917969 110.398438 C 85.191406 110.398438 86.410156 109.894531 87.308594 108.996094 C 88.207031 108.09375 88.714844 106.875 88.714844 105.601562 L 88.714844 80.457031 C 88.75 79.796875 88.644531 79.136719 88.402344 78.523438 C 88.15625 77.910156 87.785156 77.355469 87.308594 76.898438 C 86.828125 76.441406 86.257812 76.09375 85.632812 75.878906 C 85.007812 75.667969 84.347656 75.589844 83.6875 75.65625 Z M 68.75 85.347656 C 67.03125 85.335938 65.355469 84.792969 63.953125 83.792969 L 63.953125 117.027344 C 63.953125 118.300781 64.460938 119.523438 65.359375 120.421875 C 66.257812 121.324219 67.480469 121.828125 68.75 121.828125 C 70.023438 121.828125 71.242188 121.324219 72.144531 120.421875 C 73.042969 119.523438 73.546875 118.300781 73.546875 117.027344 L 73.546875 83.839844 C 72.097656 84.921875 70.328125 85.484375 68.523438 85.441406 Z M 27.867188 110.8125 L 27.867188 17.964844 C 27.855469 16.832031 27.394531 15.753906 26.59375 14.957031 C 25.789062 14.160156 24.703125 13.714844 23.570312 13.714844 L 22.566406 13.714844 C 21.4375 13.714844 20.351562 14.160156 19.546875 14.957031 C 18.742188 15.753906 18.285156 16.832031 18.273438 17.964844 L 18.273438 110.8125 C 18.273438 111.949219 18.726562 113.042969 19.53125 113.851562 C 20.335938 114.65625 21.429688 115.109375 22.566406 115.109375 L 23.570312 115.109375 C 24.710938 115.109375 25.804688 114.65625 26.609375 113.851562 C 27.414062 113.042969 27.867188 111.949219 27.867188 110.8125 Z M 38.738281 104.046875 L 37.734375 104.046875 C 36.59375 104.046875 35.503906 103.59375 34.695312 102.789062 C 33.890625 101.980469 33.4375 100.886719 33.4375 99.75 L 33.4375 29.027344 C 33.449219 27.898438 33.910156 26.816406 34.710938 26.019531 C 35.515625 25.222656 36.601562 24.777344 37.734375 24.777344 L 38.738281 24.777344 C 39.871094 24.777344 40.953125 25.222656 41.757812 26.019531 C 42.5625 26.816406 43.019531 27.898438 43.03125 29.027344 L 43.03125 99.839844 C 43.03125 100.980469 42.578125 102.074219 41.773438 102.878906 C 40.96875 103.683594 39.878906 104.136719 38.738281 104.136719 Z M 53.859375 93.164062 L 52.808594 93.164062 C 51.683594 93.164062 50.601562 92.71875 49.804688 91.921875 C 49.007812 91.125 48.558594 90.042969 48.558594 88.914062 L 48.558594 40 C 48.554688 39.4375 48.660156 38.878906 48.871094 38.359375 C 49.082031 37.839844 49.390625 37.363281 49.789062 36.964844 C 50.183594 36.566406 50.652344 36.246094 51.171875 36.03125 C 51.691406 35.8125 52.246094 35.703125 52.808594 35.703125 L 53.859375 35.703125 C 54.988281 35.714844 56.070312 36.171875 56.867188 36.976562 C 57.660156 37.78125 58.105469 38.867188 58.105469 40 L 58.105469 88.914062 C 58.105469 90.042969 57.660156 91.125 56.863281 91.921875 C 56.066406 92.71875 54.984375 93.164062 53.859375 93.164062 Z M 68.980469 81.964844 L 68.019531 81.964844 C 66.890625 81.964844 65.804688 81.519531 65 80.722656 C 64.195312 79.925781 63.738281 78.847656 63.726562 77.714844 L 63.726562 51.382812 C 63.6875 50.796875 63.773438 50.207031 63.972656 49.652344 C 64.167969 49.101562 64.480469 48.59375 64.882812 48.164062 C 65.285156 47.738281 65.769531 47.394531 66.3125 47.164062 C 66.851562 46.929688 67.433594 46.808594 68.019531 46.8125 L 69.023438 46.8125 C 70.164062 46.8125 71.257812 47.265625 72.0625 48.070312 C 72.867188 48.875 73.320312 49.96875 73.320312 51.109375 L 73.320312 77.621094 C 73.324219 78.191406 73.21875 78.753906 73.003906 79.28125 C 72.792969 79.808594 72.476562 80.285156 72.078125 80.691406 C 71.679688 81.09375 71.203125 81.414062 70.679688 81.632812 C 70.15625 81.851562 69.59375 81.964844 69.023438 81.964844 Z M 84.144531 72.136719 L 83.140625 72.136719 C 82.003906 72.136719 80.910156 71.683594 80.105469 70.878906 C 79.300781 70.074219 78.847656 68.980469 78.847656 67.839844 L 78.847656 61.027344 C 78.859375 59.898438 79.316406 58.816406 80.121094 58.019531 C 80.925781 57.222656 82.011719 56.777344 83.140625 56.777344 L 84.144531 56.777344 C 85.277344 56.777344 86.363281 57.222656 87.167969 58.019531 C 87.96875 58.816406 88.429688 59.898438 88.441406 61.027344 L 88.441406 67.839844 C 88.441406 68.972656 87.996094 70.058594 87.199219 70.863281 C 86.402344 71.667969 85.324219 72.125 84.191406 72.136719 Z M 84.144531 72.136719 "/>
</g>
</svg>
