<?xml version="1.0" encoding="UTF-8"?>
<svg xmlns="http://www.w3.org/2000/svg" xmlns:xlink="http://www.w3.org/1999/xlink" width="228px" height="160px" viewBox="0 0 620 160" version="1.1">
<g id="surface1">
<path style=" stroke:none;fill-rule:nonzero;fill:rgb(22.352941%,25.490196%,28.627451%);fill-opacity:1;" d="M 114.910156 67.5 C 126.84375 67.5 129.53125 72.691406 129.53125 79.167969 C 129.53125 86.035156 126.28125 90.953125 114.957031 90.953125 C 103.707031 90.953125 100.457031 86.320312 100.457031 79.167969 C 100.457031 72.132812 104 67.5 114.910156 67.5 Z M 114.910156 67.5 "/>
<path style=" stroke:none;fill-rule:nonzero;fill:rgb(22.352941%,25.490196%,28.627451%);fill-opacity:1;" d="M 239.648438 67.5 C 251.582031 67.5 254.269531 72.691406 254.269531 79.167969 C 254.269531 86.035156 251.015625 90.953125 239.695312 90.953125 C 228.449219 90.953125 225.191406 86.320312 225.191406 79.167969 C 225.191406 72.132812 228.738281 67.5 239.648438 67.5 Z M 239.648438 67.5 "/>
<path style=" stroke:none;fill-rule:evenodd;fill:rgb(22.352941%,25.490196%,28.627451%);fill-opacity:1;" d="M 9.230469 146.667969 L 9.230469 11.609375 L 612.410156 11.609375 L 612.410156 146.667969 Z M 296.707031 139.046875 L 604.804688 139.046875 L 604.804688 19.226562 L 296.707031 19.226562 Z M 114.964844 102.449219 C 136.15625 102.449219 145.066406 93.296875 145.066406 79 C 145.066406 64.46875 135.03125 55.832031 114.964844 55.832031 C 95.210938 55.832031 84.8125 65.210938 84.8125 79 C 84.8125 94.554688 95.71875 102.449219 114.964844 102.449219 Z M 41.292969 56.859375 L 41.292969 101.765625 L 84.0625 101.765625 L 84.0625 89.804688 L 56.765625 89.804688 L 56.765625 56.859375 Z M 192.929688 101.765625 L 192.53125 97.414062 C 187.355469 101.113281 181.054688 102.894531 174.710938 102.449219 C 165.175781 102.449219 157.234375 99.589844 152.777344 93.8125 C 149.839844 89.597656 148.355469 84.535156 148.554688 79.398438 C 148.386719 74.367188 149.921875 69.429688 152.90625 65.382812 C 157.414062 59.777344 165.585938 56.0625 177.75 56.0625 C 191.742188 56.0625 199.96875 60.351562 203.503906 67.558594 C 204.265625 69.253906 204.710938 71.078125 204.820312 72.933594 L 190.015625 72.933594 C 189.644531 71.804688 188.949219 70.8125 188.019531 70.074219 C 185.070312 68.113281 181.550781 67.207031 178.023438 67.5 C 175.957031 67.25 173.859375 67.441406 171.867188 68.0625 C 169.878906 68.683594 168.046875 69.722656 166.488281 71.105469 C 164.71875 73.53125 163.886719 76.519531 164.148438 79.511719 C 163.941406 82.367188 164.707031 85.210938 166.316406 87.578125 C 167.890625 89.046875 169.757812 90.15625 171.796875 90.835938 C 173.839844 91.519531 176 91.753906 178.136719 91.523438 C 182.382812 91.871094 186.597656 90.558594 189.902344 87.863281 C 190.613281 86.972656 191.101562 85.929688 191.328125 84.816406 L 175.398438 84.816406 L 175.398438 75.164062 L 205.207031 75.164062 L 205.207031 101.765625 Z M 239.703125 102.449219 C 260.890625 102.449219 269.800781 93.296875 269.800781 79 C 269.800781 64.46875 259.753906 55.832031 239.703125 55.832031 C 219.949219 55.832031 209.546875 65.210938 209.546875 79 C 209.546875 94.554688 220.457031 102.449219 239.703125 102.449219 Z M 239.703125 102.449219 "/>
<path style=" stroke:none;fill-rule:nonzero;fill:rgb(22.352941%,25.490196%,28.627451%);fill-opacity:1;" d="M 322.769531 101.59375 L 322.769531 56.691406 L 333.800781 56.691406 L 333.800781 101.59375 Z M 322.769531 101.59375 "/>
<path style=" stroke:none;fill-rule:nonzero;fill:rgb(22.352941%,25.490196%,28.627451%);fill-opacity:1;" d="M 390.445312 82.832031 C 387.648438 86.492188 382.835938 88.164062 376.054688 88.207031 C 374.625 88.207031 355.664062 88.148438 355.664062 88.148438 L 355.664062 101.59375 L 344.867188 101.59375 L 344.867188 56.691406 L 376.058594 56.691406 C 378.558594 56.425781 381.085938 56.691406 383.476562 57.46875 C 385.867188 58.246094 388.066406 59.519531 389.933594 61.207031 C 392.398438 64.421875 393.597656 68.433594 393.304688 72.476562 C 393.554688 76.152344 392.546875 79.804688 390.445312 82.832031 Z M 381.59375 68.191406 C 380.453125 66.476562 377.992188 65.523438 373.824219 65.523438 L 355.605469 65.523438 L 355.605469 79.191406 L 373.707031 79.191406 C 378.160156 79.191406 380.507812 78.277344 381.59375 76.503906 C 382.234375 75.253906 382.511719 73.84375 382.390625 72.441406 C 382.488281 70.980469 382.210938 69.515625 381.59375 68.191406 Z M 381.59375 68.191406 "/>
<path style=" stroke:none;fill-rule:nonzero;fill:rgb(22.352941%,25.490196%,28.627451%);fill-opacity:1;" d="M 425.113281 102.277344 C 404.78125 102.277344 398.558594 94.660156 398.558594 87.121094 L 410.09375 87.121094 C 410.09375 90.839844 415.175781 93.640625 425.628906 93.640625 C 436.019531 93.640625 438.761719 91.808594 438.761719 88.835938 C 438.761719 85.515625 436.707031 84.488281 427.054688 83.402344 C 425.152344 83.230469 419.976562 82.601562 418.03125 82.316406 C 404.339844 80.769531 399.066406 76.707031 399.066406 69.445312 C 399.066406 61.777344 406.78125 56.003906 423.511719 56.003906 C 441.675781 56.003906 448.644531 63.152344 448.644531 70.589844 L 437.234375 70.589844 C 437.234375 66.816406 432.949219 64.640625 422.839844 64.640625 C 412.445312 64.640625 410.21875 66.070312 410.21875 68.871094 C 410.21875 71.789062 412.5 72.703125 423.53125 74.019531 C 426.046875 74.367188 431.640625 74.996094 433.183594 75.160156 C 444.835938 76.363281 450.089844 80.59375 450.089844 88.085938 C 450.070312 97.011719 442.074219 102.277344 425.113281 102.277344 Z M 425.113281 102.277344 "/>
<path style=" stroke:none;fill-rule:nonzero;fill:rgb(22.352941%,25.490196%,28.627451%);fill-opacity:1;" d="M 482.574219 102.222656 C 467.671875 102.222656 457.960938 96.328125 457.960938 83.933594 L 457.960938 56.691406 L 468.863281 56.691406 L 468.863281 84.085938 C 468.863281 89.753906 473.492188 93.523438 483.03125 93.523438 C 491.652344 93.523438 496.796875 89.980469 496.796875 84.085938 L 496.796875 56.691406 L 507.589844 56.691406 L 507.589844 84.953125 C 507.589844 96.21875 498.5625 102.222656 482.574219 102.222656 Z M 482.574219 102.222656 "/>
<path style=" stroke:none;fill-rule:nonzero;fill:rgb(22.352941%,25.490196%,28.627451%);fill-opacity:1;" d="M 566.699219 101.59375 L 566.699219 71.617188 L 552.707031 101.59375 L 542.085938 101.59375 L 528.492188 71.617188 L 528.492188 101.59375 L 518.222656 101.59375 L 518.222656 56.691406 L 532.136719 56.691406 L 547.554688 90.894531 L 563.316406 56.691406 L 577.011719 56.691406 L 577.011719 101.59375 Z M 566.699219 101.59375 "/>
</g>
</svg>
