<?xml version="1.0" encoding="UTF-8"?>
<svg xmlns="http://www.w3.org/2000/svg" xmlns:xlink="http://www.w3.org/1999/xlink" width="228px" height="160px" viewBox="0 0 746 160" version="1.1">
<g id="surface1">
<path style=" stroke:none;fill-rule:nonzero;fill:rgb(22.352941%,25.490196%,28.627451%);fill-opacity:1;" d="M 119.460938 71.3125 C 117.441406 73.34375 115.894531 75.800781 114.933594 78.5 C 113.96875 81.199219 113.613281 84.078125 113.886719 86.933594 L 113.792969 86.835938 C 114.074219 90.195312 113.621094 93.578125 112.464844 96.742188 C 111.308594 99.910156 109.476562 102.785156 107.09375 105.167969 C 104.710938 107.550781 101.839844 109.386719 98.675781 110.542969 C 95.511719 111.703125 92.136719 112.15625 88.78125 111.871094 L 88.875 111.96875 C 84.859375 111.59375 80.828125 112.46875 77.328125 114.472656 C 73.828125 116.476562 71.03125 119.511719 69.316406 123.164062 C 67.605469 126.816406 67.058594 130.910156 67.753906 134.886719 C 68.449219 138.859375 70.355469 142.523438 73.207031 145.375 C 76.058594 148.230469 79.722656 150.132812 83.691406 150.824219 C 87.664062 151.515625 91.753906 150.96875 95.402344 149.25 C 99.050781 147.53125 102.082031 144.730469 104.078125 141.222656 C 106.078125 137.71875 106.949219 133.683594 106.570312 129.664062 L 106.671875 129.761719 C 106.390625 126.402344 106.839844 123.019531 108 119.855469 C 109.15625 116.6875 110.988281 113.8125 113.371094 111.429688 C 115.753906 109.046875 118.625 107.210938 121.789062 106.054688 C 124.953125 104.894531 128.328125 104.441406 131.683594 104.726562 L 131.582031 104.628906 C 134.863281 104.925781 138.164062 104.386719 141.179688 103.066406 C 144.195312 101.742188 146.832031 99.679688 148.839844 97.070312 C 150.847656 94.457031 152.164062 91.378906 152.667969 88.125 C 153.171875 84.867188 152.84375 81.535156 151.71875 78.4375 C 150.59375 75.339844 148.703125 72.578125 146.230469 70.40625 C 143.753906 68.234375 140.769531 66.722656 137.554688 66.011719 C 134.339844 65.300781 130.996094 65.414062 127.835938 66.339844 C 124.675781 67.265625 121.800781 68.976562 119.476562 71.3125 Z M 119.460938 71.3125 "/>
<path style=" stroke:none;fill-rule:nonzero;fill:rgb(22.352941%,25.490196%,28.627451%);fill-opacity:1;" d="M 80.152344 99.390625 L 80.050781 99.296875 C 82.902344 99.582031 85.785156 99.234375 88.484375 98.269531 C 91.1875 97.308594 93.640625 95.753906 95.667969 93.726562 C 97.695312 91.699219 99.246094 89.246094 100.210938 86.542969 C 101.175781 83.839844 101.527344 80.957031 101.242188 78.101562 L 101.34375 78.199219 C 101.0625 74.835938 101.511719 71.457031 102.667969 68.292969 C 103.828125 65.125 105.660156 62.25 108.042969 59.867188 C 110.421875 57.484375 113.296875 55.648438 116.460938 54.488281 C 119.621094 53.332031 123 52.878906 126.355469 53.164062 L 126.253906 53.066406 C 130.269531 53.445312 134.304688 52.574219 137.804688 50.570312 C 141.308594 48.570312 144.109375 45.535156 145.824219 41.882812 C 147.539062 38.230469 148.085938 34.136719 147.394531 30.160156 C 146.699219 26.183594 144.796875 22.519531 141.945312 19.664062 C 139.09375 16.8125 135.433594 14.90625 131.460938 14.214844 C 127.488281 13.519531 123.398438 14.066406 119.75 15.785156 C 116.097656 17.503906 113.066406 20.304688 111.066406 23.808594 C 109.070312 27.316406 108.199219 31.351562 108.574219 35.371094 L 108.480469 35.269531 C 108.761719 38.628906 108.3125 42.007812 107.15625 45.175781 C 106 48.34375 104.164062 51.21875 101.785156 53.601562 C 99.402344 55.984375 96.527344 57.820312 93.363281 58.980469 C 90.199219 60.136719 86.824219 60.589844 83.464844 60.304688 L 83.5625 60.40625 C 80.710938 60.117188 77.828125 60.46875 75.128906 61.429688 C 72.429688 62.394531 69.976562 63.945312 67.945312 65.972656 C 65.917969 68.003906 64.367188 70.457031 63.402344 73.160156 C 62.4375 75.863281 62.085938 78.746094 62.371094 81.601562 L 62.273438 81.503906 C 62.558594 84.863281 62.105469 88.242188 60.945312 91.410156 C 59.789062 94.574219 57.957031 97.449219 55.574219 99.832031 C 53.195312 102.214844 50.320312 104.050781 47.160156 105.210938 C 43.996094 106.367188 40.617188 106.820312 37.261719 106.539062 L 37.359375 106.632812 C 33.34375 106.257812 29.308594 107.128906 25.808594 109.128906 C 22.304688 111.132812 19.507812 114.164062 17.789062 117.816406 C 16.074219 121.472656 15.527344 125.5625 16.21875 129.539062 C 16.914062 133.515625 18.816406 137.179688 21.667969 140.035156 C 24.519531 142.890625 28.179688 144.792969 32.152344 145.488281 C 36.125 146.183594 40.214844 145.632812 43.867188 143.917969 C 47.515625 142.199219 50.546875 139.398438 52.546875 135.890625 C 54.546875 132.386719 55.417969 128.347656 55.039062 124.332031 L 55.140625 124.425781 C 54.855469 121.066406 55.308594 117.6875 56.464844 114.519531 C 57.621094 111.355469 59.457031 108.480469 61.835938 106.09375 C 64.21875 103.710938 67.09375 101.875 70.253906 100.71875 C 73.417969 99.5625 76.796875 99.109375 80.152344 99.390625 Z M 80.152344 99.390625 "/>
<path style=" stroke:none;fill-rule:nonzero;fill:rgb(22.352941%,25.490196%,28.627451%);fill-opacity:1;" d="M 44.441406 88.6875 C 46.460938 86.65625 48.007812 84.199219 48.96875 81.5 C 49.929688 78.800781 50.285156 75.921875 50.007812 73.066406 L 50.109375 73.164062 C 49.828125 69.800781 50.277344 66.421875 51.4375 63.253906 C 52.59375 60.085938 54.429688 57.210938 56.8125 54.828125 C 59.195312 52.441406 62.066406 50.609375 65.230469 49.453125 C 68.398438 48.292969 71.777344 47.84375 75.132812 48.128906 L 75.03125 48.03125 C 79.046875 48.410156 83.078125 47.535156 86.578125 45.535156 C 90.078125 43.535156 92.875 40.5 94.589844 36.847656 C 96.304688 33.199219 96.855469 29.105469 96.160156 25.132812 C 95.464844 21.15625 93.5625 17.492188 90.714844 14.640625 C 87.863281 11.785156 84.203125 9.882812 80.230469 9.1875 C 76.261719 8.496094 72.171875 9.042969 68.523438 10.757812 C 64.875 12.476562 61.84375 15.277344 59.847656 18.78125 C 57.847656 22.285156 56.976562 26.320312 57.351562 30.335938 L 57.253906 30.238281 C 57.539062 33.597656 57.085938 36.980469 55.929688 40.144531 C 54.773438 43.3125 52.941406 46.1875 50.558594 48.570312 C 48.175781 50.953125 45.304688 52.789062 42.140625 53.945312 C 38.976562 55.105469 35.597656 55.558594 32.242188 55.273438 L 32.339844 55.371094 C 29.058594 55.078125 25.757812 55.617188 22.742188 56.9375 C 19.726562 58.257812 17.09375 60.324219 15.085938 62.933594 C 13.078125 65.546875 11.761719 68.625 11.261719 71.878906 C 10.757812 75.136719 11.082031 78.46875 12.210938 81.566406 C 13.335938 84.664062 15.222656 87.425781 17.699219 89.597656 C 20.175781 91.769531 23.160156 93.28125 26.375 93.988281 C 29.589844 94.699219 32.933594 94.585938 36.09375 93.660156 C 39.253906 92.734375 42.128906 91.023438 44.449219 88.6875 Z M 44.441406 88.6875 "/>
<path style=" stroke:none;fill-rule:nonzero;fill:rgb(22.352941%,25.490196%,28.627451%);fill-opacity:1;" d="M 209.503906 35.492188 L 225.328125 35.492188 L 225.328125 112.574219 L 209.503906 112.574219 Z M 209.503906 35.492188 "/>
<path style=" stroke:none;fill-rule:nonzero;fill:rgb(22.352941%,25.490196%,28.627451%);fill-opacity:1;" d="M 234.292969 86.179688 C 234.269531 80.640625 235.890625 75.21875 238.949219 70.605469 C 242.007812 65.988281 246.367188 62.382812 251.472656 60.246094 C 256.582031 58.113281 262.207031 57.542969 267.636719 58.609375 C 273.066406 59.675781 278.058594 62.332031 281.980469 66.242188 C 285.902344 70.152344 288.578125 75.136719 289.664062 80.570312 C 290.753906 86 290.207031 91.632812 288.09375 96.753906 C 285.980469 101.871094 282.394531 106.25 277.796875 109.328125 C 273.195312 112.410156 267.785156 114.054688 262.25 114.054688 C 258.578125 114.09375 254.933594 113.402344 251.527344 112.019531 C 248.125 110.632812 245.03125 108.585938 242.425781 105.992188 C 239.824219 103.394531 237.765625 100.308594 236.367188 96.90625 C 234.96875 93.503906 234.265625 89.859375 234.292969 86.179688 Z M 274.382812 86.179688 C 274.316406 83.792969 273.550781 81.476562 272.175781 79.523438 C 270.804688 77.570312 268.886719 76.066406 266.660156 75.199219 C 264.4375 74.332031 262.007812 74.136719 259.675781 74.644531 C 257.34375 75.152344 255.214844 76.332031 253.550781 78.046875 C 251.886719 79.757812 250.761719 81.921875 250.320312 84.269531 C 249.878906 86.617188 250.140625 89.042969 251.070312 91.246094 C 251.996094 93.445312 253.554688 95.324219 255.542969 96.644531 C 257.53125 97.960938 259.863281 98.667969 262.25 98.667969 C 263.886719 98.710938 265.511719 98.414062 267.027344 97.796875 C 268.539062 97.179688 269.910156 96.257812 271.050781 95.085938 C 272.191406 93.910156 273.074219 92.515625 273.648438 90.980469 C 274.222656 89.449219 274.472656 87.816406 274.382812 86.179688 Z M 274.382812 86.179688 "/>
<path style=" stroke:none;fill-rule:nonzero;fill:rgb(22.352941%,25.490196%,28.627451%);fill-opacity:1;" d="M 353.285156 59.78125 L 353.285156 109.914062 C 353.285156 127.652344 339.460938 135.152344 325.433594 135.152344 C 320.492188 135.523438 315.546875 134.523438 311.136719 132.265625 C 306.726562 130.007812 303.019531 126.578125 300.429688 122.351562 L 313.933594 114.539062 C 315.023438 116.742188 316.757812 118.558594 318.90625 119.746094 C 321.054688 120.933594 323.515625 121.4375 325.960938 121.1875 C 327.519531 121.40625 329.109375 121.269531 330.613281 120.785156 C 332.113281 120.304688 333.484375 119.492188 334.628906 118.40625 C 335.773438 117.324219 336.660156 115.996094 337.222656 114.519531 C 337.785156 113.046875 338.011719 111.464844 337.878906 109.894531 L 337.878906 105.066406 C 336.027344 107.335938 333.667969 109.140625 330.992188 110.332031 C 328.316406 111.523438 325.398438 112.070312 322.472656 111.929688 C 315.515625 111.710938 308.914062 108.789062 304.066406 103.785156 C 299.222656 98.777344 296.511719 92.082031 296.511719 85.113281 C 296.511719 78.140625 299.222656 71.445312 304.066406 66.441406 C 308.914062 61.433594 315.515625 58.511719 322.472656 58.292969 C 325.398438 58.152344 328.316406 58.699219 330.992188 59.894531 C 333.667969 61.085938 336.027344 62.886719 337.878906 65.15625 L 337.878906 59.769531 Z M 337.882812 85.121094 C 337.992188 82.566406 337.332031 80.042969 335.992188 77.867188 C 334.652344 75.691406 332.691406 73.96875 330.363281 72.917969 C 328.039062 71.867188 325.449219 71.539062 322.933594 71.972656 C 320.417969 72.40625 318.089844 73.585938 316.25 75.355469 C 314.40625 77.125 313.136719 79.40625 312.601562 81.902344 C 312.066406 84.402344 312.292969 87.003906 313.246094 89.371094 C 314.199219 91.742188 315.84375 93.773438 317.957031 95.199219 C 320.074219 96.628906 322.570312 97.390625 325.121094 97.386719 C 326.785156 97.503906 328.453125 97.269531 330.019531 96.699219 C 331.589844 96.132812 333.019531 95.242188 334.222656 94.085938 C 335.421875 92.929688 336.371094 91.535156 337 89.992188 C 337.632812 88.445312 337.933594 86.789062 337.882812 85.121094 Z M 337.882812 85.121094 "/>
<path style=" stroke:none;fill-rule:nonzero;fill:rgb(22.352941%,25.490196%,28.627451%);fill-opacity:1;" d="M 362.246094 86.179688 C 362.226562 80.640625 363.84375 75.21875 366.90625 70.605469 C 369.964844 65.988281 374.320312 62.382812 379.429688 60.246094 C 384.535156 58.113281 390.160156 57.542969 395.589844 58.609375 C 401.023438 59.675781 406.015625 62.332031 409.9375 66.242188 C 413.855469 70.152344 416.53125 75.136719 417.621094 80.570312 C 418.707031 86 418.160156 91.632812 416.046875 96.753906 C 413.933594 101.871094 410.351562 106.25 405.75 109.328125 C 401.148438 112.410156 395.742188 114.054688 390.207031 114.054688 C 386.53125 114.09375 382.886719 113.402344 379.484375 112.019531 C 376.078125 110.632812 372.984375 108.585938 370.382812 105.992188 C 367.777344 103.394531 365.71875 100.308594 364.324219 96.90625 C 362.925781 93.503906 362.21875 89.859375 362.246094 86.179688 Z M 402.339844 86.179688 C 402.273438 83.792969 401.503906 81.476562 400.132812 79.523438 C 398.757812 77.570312 396.839844 76.066406 394.617188 75.199219 C 392.394531 74.332031 389.964844 74.136719 387.632812 74.644531 C 385.300781 75.152344 383.167969 76.332031 381.503906 78.046875 C 379.839844 79.757812 378.71875 81.921875 378.277344 84.269531 C 377.835938 86.617188 378.09375 89.042969 379.023438 91.246094 C 379.953125 93.445312 381.507812 95.324219 383.496094 96.644531 C 385.484375 97.960938 387.820312 98.667969 390.207031 98.667969 C 391.839844 98.710938 393.464844 98.414062 394.980469 97.796875 C 396.496094 97.179688 397.867188 96.257812 399.003906 95.085938 C 400.144531 93.910156 401.03125 92.515625 401.605469 90.980469 C 402.175781 89.449219 402.429688 87.816406 402.339844 86.179688 Z M 402.339844 86.179688 "/>
<path style=" stroke:none;fill-rule:nonzero;fill:rgb(22.352941%,25.490196%,28.627451%);fill-opacity:1;" d="M 425.546875 45.632812 C 425.546875 43.753906 426.101562 41.914062 427.144531 40.351562 C 428.1875 38.789062 429.671875 37.570312 431.40625 36.851562 C 433.140625 36.132812 435.050781 35.945312 436.894531 36.3125 C 438.734375 36.675781 440.425781 37.582031 441.753906 38.910156 C 443.082031 40.242188 443.988281 41.933594 444.355469 43.777344 C 444.71875 45.621094 444.53125 47.53125 443.8125 49.269531 C 443.09375 51.003906 441.878906 52.488281 440.316406 53.535156 C 438.753906 54.578125 436.917969 55.136719 435.039062 55.136719 C 432.53125 55.109375 430.128906 54.101562 428.355469 52.324219 C 426.578125 50.546875 425.570312 48.144531 425.546875 45.632812 Z M 427.144531 59.78125 L 442.976562 59.78125 L 442.976562 112.582031 L 427.121094 112.582031 Z M 427.144531 59.78125 "/>
<path style=" stroke:none;fill-rule:nonzero;fill:rgb(22.352941%,25.490196%,28.627451%);fill-opacity:1;" d="M 511.308594 86.179688 C 511.492188 89.671875 510.984375 93.164062 509.8125 96.453125 C 508.644531 99.746094 506.835938 102.773438 504.492188 105.367188 C 502.148438 107.957031 499.316406 110.054688 496.160156 111.546875 C 493 113.039062 489.582031 113.890625 486.09375 114.054688 C 483.160156 114.214844 480.230469 113.71875 477.511719 112.605469 C 474.792969 111.488281 472.359375 109.785156 470.378906 107.609375 L 470.378906 133.695312 L 454.554688 133.695312 L 454.554688 59.78125 L 470.378906 59.78125 L 470.378906 64.742188 C 472.359375 62.570312 474.792969 60.863281 477.511719 59.753906 C 480.230469 58.636719 483.160156 58.144531 486.09375 58.304688 C 489.582031 58.464844 493.003906 59.316406 496.160156 60.808594 C 499.320312 62.300781 502.152344 64.402344 504.496094 66.992188 C 506.839844 69.582031 508.648438 72.613281 509.816406 75.90625 C 510.984375 79.199219 511.492188 82.691406 511.308594 86.179688 Z M 495.484375 86.179688 C 495.421875 83.710938 494.632812 81.3125 493.214844 79.289062 C 491.796875 77.261719 489.816406 75.703125 487.519531 74.800781 C 485.21875 73.894531 482.703125 73.691406 480.289062 74.210938 C 477.875 74.730469 475.667969 75.953125 473.945312 77.722656 C 472.21875 79.492188 471.054688 81.730469 470.597656 84.160156 C 470.136719 86.589844 470.40625 89.101562 471.363281 91.378906 C 472.324219 93.65625 473.933594 95.597656 475.992188 96.964844 C 478.050781 98.332031 480.464844 99.0625 482.933594 99.0625 C 484.628906 99.136719 486.320312 98.851562 487.898438 98.226562 C 489.476562 97.601562 490.90625 96.652344 492.089844 95.433594 C 493.277344 94.21875 494.191406 92.765625 494.773438 91.171875 C 495.359375 89.578125 495.601562 87.875 495.484375 86.179688 Z M 495.484375 86.179688 "/>
<path style=" stroke:none;fill-rule:nonzero;fill:rgb(22.352941%,25.490196%,28.627451%);fill-opacity:1;" d="M 560.144531 96.734375 C 560.144531 108.878906 549.597656 114.054688 538.207031 114.054688 C 533.601562 114.46875 528.980469 113.496094 524.9375 111.257812 C 520.894531 109.015625 517.613281 105.613281 515.523438 101.488281 L 529.234375 93.675781 C 529.789062 95.582031 530.980469 97.242188 532.609375 98.375 C 534.238281 99.507812 536.207031 100.046875 538.1875 99.902344 C 541.980469 99.902344 543.882812 98.742188 543.882812 96.632812 C 543.882812 90.820312 517.925781 93.886719 517.925781 75.621094 C 517.925781 64.105469 527.636719 58.304688 538.605469 58.304688 C 542.730469 58.171875 546.8125 59.152344 550.429688 61.140625 C 554.050781 63.125 557.070312 66.046875 559.175781 69.601562 L 545.671875 76.886719 C 545.082031 75.503906 544.09375 74.324219 542.835938 73.5 C 541.578125 72.671875 540.109375 72.234375 538.605469 72.238281 C 535.863281 72.238281 534.171875 73.308594 534.171875 75.195312 C 534.195312 81.214844 560.144531 77.199219 560.144531 96.734375 Z M 560.144531 96.734375 "/>
<path style=" stroke:none;fill-rule:nonzero;fill:rgb(22.352941%,25.490196%,28.627451%);fill-opacity:1;" d="M 617.953125 59.78125 L 617.953125 112.582031 L 602.128906 112.582031 L 602.128906 107.617188 C 600.300781 109.808594 597.984375 111.535156 595.359375 112.652344 C 592.738281 113.773438 589.894531 114.253906 587.046875 114.058594 C 576.390625 114.058594 567.332031 106.457031 567.332031 92.191406 L 567.332031 59.78125 L 583.160156 59.78125 L 583.160156 89.871094 C 583.027344 91.128906 583.167969 92.402344 583.578125 93.597656 C 583.984375 94.792969 584.652344 95.886719 585.523438 96.800781 C 586.398438 97.714844 587.460938 98.425781 588.636719 98.886719 C 589.808594 99.347656 591.070312 99.546875 592.335938 99.472656 C 598.136719 99.472656 602.144531 96.097656 602.144531 88.597656 L 602.144531 59.796875 Z M 617.953125 59.78125 "/>
<path style=" stroke:none;fill-rule:nonzero;fill:rgb(22.352941%,25.490196%,28.627451%);fill-opacity:1;" d="M 708.699219 80.160156 L 708.699219 112.574219 L 692.875 112.574219 L 692.875 81.53125 C 692.875 76.25 690.34375 72.875 685.28125 72.875 C 680.003906 72.875 677.046875 76.570312 677.046875 82.800781 L 677.046875 112.574219 L 661.226562 112.574219 L 661.226562 81.53125 C 661.226562 76.25 658.695312 72.875 653.628906 72.875 C 648.355469 72.875 645.402344 76.570312 645.402344 82.800781 L 645.402344 112.574219 L 629.574219 112.574219 L 629.574219 59.777344 L 645.402344 59.777344 L 645.402344 64.628906 C 647.042969 62.476562 649.195312 60.769531 651.664062 59.664062 C 654.136719 58.558594 656.84375 58.089844 659.539062 58.296875 C 662.246094 58.164062 664.941406 58.738281 667.367188 59.957031 C 669.785156 61.179688 671.847656 63.007812 673.355469 65.265625 C 675.109375 62.902344 677.433594 61.027344 680.105469 59.808594 C 682.78125 58.589844 685.722656 58.070312 688.652344 58.296875 C 700.765625 58.304688 708.699219 66.960938 708.699219 80.160156 Z M 708.699219 80.160156 "/>
<path style=" stroke:none;fill-rule:nonzero;fill:rgb(22.352941%,25.490196%,28.627451%);fill-opacity:1;" d="M 722.085938 59.457031 C 728.570312 59.457031 733.828125 54.191406 733.828125 47.703125 C 733.828125 41.210938 728.570312 35.945312 722.085938 35.945312 C 715.601562 35.945312 710.339844 41.210938 710.339844 47.703125 C 710.339844 54.191406 715.601562 59.457031 722.085938 59.457031 Z M 722.085938 59.457031 "/>
</g>
</svg>
