<?xml version="1.0" encoding="UTF-8"?>
<svg xmlns="http://www.w3.org/2000/svg" xmlns:xlink="http://www.w3.org/1999/xlink" width="228px" height="160px" viewBox="0 0 603 160" version="1.1">
<g id="surface1">
<path style=" stroke:none;fill-rule:nonzero;fill:rgb(22.352941%,25.490196%,28.627451%);fill-opacity:1;" d="M 175.921875 51.472656 L 190.585938 51.472656 L 190.585938 110.902344 L 175.921875 110.902344 Z M 196.433594 88.546875 C 196.433594 73.828125 205.566406 65.003906 219.273438 65.003906 C 232.976562 65.003906 242.113281 73.828125 242.113281 88.546875 C 242.113281 103.269531 233.296875 112.183594 219.273438 112.183594 C 205.25 112.183594 196.433594 103.589844 196.433594 88.546875 Z M 227.585938 88.546875 C 227.585938 80.457031 224.433594 75.703125 219.410156 75.703125 C 214.386719 75.703125 211.277344 80.273438 211.277344 88.546875 C 211.277344 96.824219 214.386719 101.347656 219.410156 101.347656 C 224.433594 101.347656 227.679688 96.824219 227.679688 88.59375 Z M 247.960938 113.964844 L 262.121094 113.964844 C 262.765625 115.492188 263.894531 116.765625 265.328125 117.589844 C 266.761719 118.414062 268.429688 118.746094 270.070312 118.539062 C 275.691406 118.539062 278.613281 115.519531 278.613281 111.039062 L 278.613281 102.8125 L 278.660156 102.8125 C 277.449219 105.375 275.492188 107.507812 273.046875 108.9375 C 270.601562 110.367188 267.777344 111.019531 264.953125 110.8125 C 254.21875 110.8125 247.09375 102.628906 247.09375 88.546875 C 247.09375 74.46875 253.898438 65.691406 265.367188 65.691406 C 268.261719 65.535156 271.136719 66.285156 273.589844 67.832031 C 276.042969 69.378906 277.960938 71.648438 279.070312 74.332031 L 278.660156 74.332031 L 278.660156 66.058594 L 293.1875 66.058594 L 293.1875 110.582031 C 293.1875 121.324219 283.683594 128.046875 269.707031 128.046875 C 257.007812 128 248.875 122.195312 248.050781 114.011719 Z M 278.660156 88.546875 C 278.660156 81.371094 275.371094 76.847656 270.164062 76.847656 C 264.953125 76.847656 261.757812 81.417969 261.757812 88.546875 C 261.757812 95.679688 264.910156 99.886719 270.164062 99.886719 C 275.414062 99.886719 278.660156 96 278.660156 88.546875 Z M 298.988281 88.546875 C 298.988281 73.828125 308.125 65.003906 321.828125 65.003906 C 335.53125 65.003906 344.667969 73.828125 344.667969 88.546875 C 344.667969 103.269531 335.808594 112.183594 321.828125 112.183594 C 307.851562 112.183594 299.078125 103.589844 299.078125 88.546875 Z M 330.140625 88.546875 C 330.140625 80.457031 326.945312 75.703125 321.964844 75.703125 C 316.984375 75.703125 313.835938 80.273438 313.835938 88.546875 C 313.835938 96.824219 316.941406 101.347656 321.964844 101.347656 C 326.992188 101.347656 330.234375 96.824219 330.234375 88.59375 Z M 350.609375 55.222656 C 350.542969 53.726562 350.929688 52.25 351.710938 50.972656 C 352.496094 49.699219 353.640625 48.6875 355.003906 48.074219 C 356.367188 47.457031 357.882812 47.261719 359.355469 47.511719 C 360.828125 47.765625 362.195312 48.453125 363.273438 49.488281 C 364.355469 50.523438 365.097656 51.855469 365.414062 53.320312 C 365.730469 54.78125 365.601562 56.304688 365.046875 57.691406 C 364.488281 59.082031 363.53125 60.273438 362.292969 61.109375 C 361.054688 61.949219 359.59375 62.398438 358.101562 62.398438 C 357.144531 62.425781 356.195312 62.257812 355.300781 61.914062 C 354.410156 61.566406 353.597656 61.046875 352.910156 60.382812 C 352.222656 59.71875 351.671875 58.925781 351.292969 58.046875 C 350.914062 57.167969 350.710938 56.226562 350.699219 55.269531 Z M 350.609375 66.011719 L 365.453125 66.011719 L 365.453125 111.085938 L 350.835938 111.085938 Z M 418.855469 88.546875 C 418.855469 103.222656 412.277344 111.726562 401.085938 111.726562 C 398.222656 111.902344 395.371094 111.195312 392.917969 109.699219 C 390.46875 108.203125 388.535156 105.992188 387.382812 103.359375 L 387.109375 103.359375 L 387.109375 125.578125 L 372.445312 125.578125 L 372.445312 66.148438 L 387.015625 66.148438 L 387.015625 74.195312 L 387.289062 74.195312 C 388.40625 71.511719 390.320312 69.238281 392.769531 67.683594 C 395.222656 66.128906 398.09375 65.371094 400.996094 65.507812 C 412.507812 65.417969 419.128906 73.875 419.128906 88.59375 Z M 403.917969 88.546875 C 403.917969 81.417969 400.582031 76.800781 395.421875 76.800781 C 390.261719 76.800781 387.015625 81.371094 386.96875 88.546875 C 386.925781 95.726562 390.261719 100.25 395.421875 100.25 C 400.582031 100.25 404.191406 96 404.191406 88.59375 Z M 443.890625 64.960938 C 456.179688 64.960938 463.808594 70.765625 463.898438 80.089844 L 450.515625 80.089844 C 450.515625 76.847656 447.820312 74.835938 443.800781 74.835938 C 439.777344 74.835938 437.859375 76.386719 437.859375 78.71875 C 437.859375 81.050781 439.550781 81.78125 442.929688 82.46875 L 452.339844 84.386719 C 461.476562 86.308594 465.132812 89.964844 465.132812 96.777344 C 465.132812 105.921875 456.679688 112.136719 444.117188 112.136719 C 431.554688 112.136719 423.378906 106.101562 422.785156 96.914062 L 436.992188 96.914062 C 437.402344 100.25 440.054688 102.21875 444.347656 102.21875 C 448.640625 102.21875 450.652344 100.847656 450.652344 98.421875 C 450.652344 96 449.28125 95.589844 445.761719 94.855469 L 437.265625 93.074219 C 428.449219 91.199219 423.835938 86.582031 423.835938 79.679688 C 424.109375 70.71875 431.785156 65.003906 444.164062 65.003906 Z M 514.238281 111.039062 L 500.03125 111.039062 L 500.03125 102.582031 L 499.757812 102.582031 C 498.964844 105.402344 497.234375 107.871094 494.847656 109.574219 C 492.464844 111.277344 489.570312 112.117188 486.648438 111.953125 C 484.441406 112.027344 482.238281 111.628906 480.199219 110.792969 C 478.15625 109.953125 476.3125 108.691406 474.789062 107.089844 C 473.261719 105.488281 472.097656 103.582031 471.363281 101.5 C 470.628906 99.414062 470.339844 97.195312 470.523438 94.996094 L 470.523438 66.058594 L 485.1875 66.058594 L 485.1875 91.839844 C 485.1875 97.144531 487.972656 100.023438 492.542969 100.023438 C 493.613281 100.015625 494.671875 99.777344 495.644531 99.324219 C 496.617188 98.871094 497.480469 98.21875 498.175781 97.402344 C 498.871094 96.585938 499.390625 95.632812 499.6875 94.601562 C 499.976562 93.570312 500.050781 92.488281 499.894531 91.429688 L 499.894531 66.058594 L 514.515625 66.058594 Z M 521.320312 66.011719 L 535.574219 66.011719 L 535.574219 74.695312 L 535.894531 74.695312 C 536.679688 71.914062 538.371094 69.472656 540.691406 67.75 C 543.015625 66.03125 545.84375 65.128906 548.730469 65.1875 C 551.628906 64.9375 554.523438 65.777344 556.832031 67.542969 C 559.148438 69.308594 560.722656 71.878906 561.246094 74.742188 L 561.886719 74.742188 C 562.800781 71.863281 564.636719 69.363281 567.117188 67.636719 C 569.59375 65.90625 572.574219 65.046875 575.589844 65.1875 C 577.597656 65.113281 579.597656 65.460938 581.457031 66.210938 C 583.320312 66.960938 585 68.09375 586.394531 69.542969 C 587.789062 70.988281 588.855469 72.710938 589.539062 74.601562 C 590.222656 76.488281 590.496094 78.5 590.347656 80.503906 L 590.347656 111.085938 L 575.589844 111.085938 L 575.589844 84.25 C 575.589844 79.679688 573.445312 77.121094 569.285156 77.121094 C 568.363281 77.105469 567.449219 77.289062 566.605469 77.660156 C 565.761719 78.03125 565.011719 78.582031 564.398438 79.273438 C 563.785156 79.964844 563.328125 80.777344 563.058594 81.660156 C 562.796875 82.542969 562.722656 83.472656 562.84375 84.386719 L 562.84375 111.085938 L 548.867188 111.085938 L 548.867188 84.113281 C 548.867188 79.542969 546.628906 77.121094 542.609375 77.121094 C 541.675781 77.113281 540.753906 77.304688 539.902344 77.683594 C 539.050781 78.0625 538.292969 78.617188 537.671875 79.316406 C 537.054688 80.011719 536.59375 80.835938 536.316406 81.726562 C 536.039062 82.617188 535.957031 83.554688 536.074219 84.480469 L 536.074219 111.085938 L 521.414062 111.085938 Z M 521.320312 66.011719 "/>
<path style=" stroke:none;fill-rule:nonzero;fill:rgb(22.352941%,25.490196%,28.627451%);fill-opacity:1;" d="M 146.914062 55.359375 C 146.914062 46.261719 144.167969 37.375 139.035156 29.863281 C 133.902344 22.355469 126.625 16.570312 118.152344 13.269531 C 109.679688 9.96875 100.40625 9.304688 91.550781 11.367188 C 82.695312 13.429688 74.667969 18.117188 68.523438 24.824219 L 11.511719 24.824219 L 11.511719 145.234375 L 131.882812 145.234375 L 131.882812 88.960938 C 136.609375 84.730469 140.386719 79.554688 142.976562 73.761719 C 145.566406 67.972656 146.910156 61.703125 146.914062 55.359375 Z M 123.753906 55.359375 C 123.761719 59.71875 122.476562 63.984375 120.0625 67.613281 C 117.648438 71.242188 114.214844 74.074219 110.191406 75.75 C 106.167969 77.425781 101.742188 77.867188 97.464844 77.023438 C 93.191406 76.175781 89.265625 74.082031 86.179688 71.003906 C 83.097656 67.921875 80.996094 63.996094 80.140625 59.722656 C 79.289062 55.445312 79.722656 51.011719 81.386719 46.984375 C 83.050781 42.957031 85.875 39.511719 89.496094 37.089844 C 93.117188 34.664062 97.375 33.371094 101.734375 33.371094 C 107.566406 33.371094 113.160156 35.6875 117.285156 39.808594 C 121.414062 43.929688 123.738281 49.523438 123.753906 55.359375 Z M 108.722656 122.058594 L 34.671875 122.058594 L 34.671875 48 L 57.238281 48 C 56.804688 50.429688 56.574219 52.890625 56.554688 55.359375 C 56.566406 67.347656 61.332031 78.839844 69.800781 87.316406 C 78.269531 95.792969 89.753906 100.558594 101.734375 100.570312 C 104.074219 100.558594 106.414062 100.359375 108.722656 99.976562 Z M 108.722656 122.058594 "/>
</g>
</svg>
