<?xml version="1.0" encoding="UTF-8"?>
<svg xmlns="http://www.w3.org/2000/svg" xmlns:xlink="http://www.w3.org/1999/xlink" width="228px" height="160px" viewBox="0 0 1280 160" version="1.1">
<g id="surface1">
<path style=" stroke:none;fill-rule:nonzero;fill:rgb(22.352941%,25.490196%,28.627451%);fill-opacity:1;" d="M 637.414062 137.886719 L 594.300781 137.886719 L 594.300781 22.617188 L 637.414062 22.617188 Z M 598.507812 133.675781 L 633.203125 133.675781 L 633.203125 26.828125 L 598.507812 26.828125 Z M 697.40625 137.886719 L 655.15625 137.886719 L 655.15625 22.617188 L 743.425781 22.617188 C 756.074219 21.59375 768.664062 25.144531 778.914062 32.625 C 783.324219 36.660156 786.746094 41.660156 788.90625 47.234375 C 791.066406 52.8125 791.910156 58.8125 791.367188 64.765625 C 792 75.054688 788.722656 85.207031 782.199219 93.1875 C 774.476562 102.046875 761.625 106.609375 744.007812 106.769531 C 739.570312 106.886719 706.316406 106.769531 697.429688 106.769531 Z M 659.34375 133.675781 L 693.195312 133.675781 L 693.195312 102.519531 L 695.308594 102.519531 C 695.738281 102.519531 738.914062 102.652344 743.90625 102.519531 C 760.320312 102.375 772.117188 98.308594 779.015625 90.367188 C 784.824219 83.144531 787.707031 74.003906 787.097656 64.757812 C 787.617188 59.421875 786.898438 54.039062 785 49.023438 C 783.101562 44.011719 780.074219 39.503906 776.152344 35.847656 C 766.648438 29.027344 755.023438 25.828125 743.367188 26.820312 L 659.367188 26.820312 Z M 734.484375 80.875 L 692.910156 80.875 L 692.910156 49.5 L 734.761719 49.5 C 737.730469 49.089844 740.75 49.433594 743.546875 50.503906 C 746.34375 51.574219 748.828125 53.335938 750.761719 55.621094 C 752.519531 58.542969 753.34375 61.929688 753.136719 65.332031 C 753.292969 68.488281 752.613281 71.632812 751.15625 74.441406 C 749.160156 76.847656 746.578125 78.703125 743.65625 79.824219 C 740.738281 80.945312 737.578125 81.296875 734.484375 80.84375 Z M 697.121094 76.664062 L 734.484375 76.664062 C 741.390625 76.664062 745.667969 75.226562 747.5625 72.261719 C 748.605469 70.105469 749.078125 67.71875 748.933594 65.332031 C 749.121094 62.820312 748.574219 60.3125 747.367188 58.105469 L 747.316406 58.03125 C 745.3125 55.082031 741.332031 53.710938 734.761719 53.710938 L 697.121094 53.710938 Z M 868.210938 139.585938 C 830.398438 139.585938 807.832031 130.199219 799.234375 110.886719 C 797.828125 107.160156 796.871094 103.273438 796.386719 99.316406 L 796.015625 96.894531 L 841.003906 96.894531 L 841.296875 98.660156 C 841.644531 100.457031 842.410156 102.148438 843.519531 103.597656 C 845.296875 105.742188 851.226562 109.347656 870.898438 109.347656 C 894.542969 109.347656 894.542969 105.195312 894.542969 102.964844 C 894.542969 99.199219 891.804688 97.910156 872.523438 95.855469 L 868.859375 95.511719 C 861.601562 94.828125 852.421875 93.960938 848.226562 93.601562 C 812.859375 90.398438 797.070312 79.410156 797.070312 57.980469 C 797.070312 35.46875 823.941406 20.925781 865.53125 20.925781 C 899.460938 20.925781 921.320312 29.871094 930.492188 47.527344 C 932.664062 51.636719 934.128906 56.085938 934.8125 60.683594 L 935.105469 63.046875 L 890.070312 63.046875 L 889.886719 61.144531 C 889.710938 59.65625 889.078125 58.261719 888.066406 57.152344 C 886.382812 54.898438 881.0625 51.167969 864.539062 51.167969 C 844.253906 51.167969 841.457031 53.761719 841.457031 56.554688 C 841.457031 60.285156 847.867188 61.609375 868.402344 63.804688 C 876.96875 64.503906 890.738281 65.921875 895.453125 66.492188 C 925.101562 69.710938 938.332031 80.429688 938.332031 101.261719 C 938.339844 118.738281 926.171875 139.585938 868.210938 139.585938 Z M 800.933594 101.101562 C 801.355469 103.878906 802.082031 106.601562 803.097656 109.222656 C 810.929688 126.8125 832.234375 135.375 868.210938 135.375 C 898.289062 135.375 934.15625 129.480469 934.15625 101.261719 C 934.15625 82.796875 922.449219 73.652344 895.007812 70.679688 C 890.289062 70.105469 876.605469 68.699219 868.058594 67.992188 C 846.164062 65.617188 837.261719 64.355469 837.261719 56.554688 C 837.261719 48.488281 846.855469 46.957031 864.554688 46.957031 C 878.542969 46.957031 887.578125 49.480469 891.410156 54.578125 C 892.453125 55.832031 893.246094 57.28125 893.734375 58.839844 L 930.230469 58.839844 C 929.5 55.582031 928.335938 52.433594 926.777344 49.480469 C 918.359375 33.320312 897.785156 25.136719 865.550781 25.136719 C 826.519531 25.136719 801.296875 38.03125 801.296875 57.980469 C 801.296875 77.011719 815.453125 86.410156 848.613281 89.40625 C 852.824219 89.769531 861.996094 90.636719 869.273438 91.328125 L 872.960938 91.671875 C 890.871094 93.558594 898.769531 94.738281 898.769531 102.964844 C 898.769531 111.824219 888.554688 113.558594 870.914062 113.558594 C 854.59375 113.558594 844.285156 111.105469 840.304688 106.28125 C 839.074219 104.742188 838.148438 102.984375 837.574219 101.101562 Z M 1018.332031 139.445312 C 974.375 139.445312 950.121094 121.667969 950.121094 89.382812 L 950.121094 22.617188 L 992.664062 22.617188 L 992.664062 89.382812 C 992.664062 100.453125 1002.578125 106.804688 1019.847656 106.804688 C 1036.355469 106.804688 1046.601562 100.175781 1046.601562 89.523438 L 1046.601562 22.617188 L 1088.707031 22.617188 L 1088.707031 92.917969 C 1088.75 122.484375 1063.074219 139.445312 1018.308594 139.445312 Z M 954.332031 26.828125 L 954.332031 89.382812 C 954.332031 129.28125 994.398438 135.234375 1018.332031 135.234375 C 1043.074219 135.234375 1084.5625 129.734375 1084.5625 92.917969 L 1084.5625 26.828125 L 1050.878906 26.828125 L 1050.878906 89.523438 C 1050.878906 102.578125 1038.71875 111.015625 1019.914062 111.015625 C 1000.261719 111.015625 988.523438 102.929688 988.523438 89.382812 L 988.523438 26.828125 Z M 1267.132812 137.886719 L 1226.980469 137.886719 L 1226.980469 85.84375 L 1204.210938 137.886719 L 1169.1875 137.886719 L 1146.652344 85.945312 L 1146.652344 137.886719 L 1106.359375 137.886719 L 1106.359375 22.617188 L 1159.359375 22.617188 L 1186.898438 86.171875 L 1215.765625 22.617188 L 1267.183594 22.617188 Z M 1231.191406 133.675781 L 1262.921875 133.675781 L 1262.921875 26.828125 L 1218.441406 26.828125 L 1186.761719 96.546875 L 1156.5625 26.828125 L 1110.535156 26.828125 L 1110.535156 133.675781 L 1142.410156 133.675781 L 1142.410156 65.683594 L 1171.882812 133.699219 L 1201.355469 133.699219 L 1231.140625 65.785156 Z M 50.980469 24.722656 L 12.632812 24.722656 L 12.632812 135.78125 L 118.601562 135.78125 L 118.601562 106.214844 L 50.980469 106.214844 Z M 196.007812 22.199219 C 147.058594 22.199219 121.3125 45.398438 121.3125 79.460938 C 121.3125 117.945312 148.335938 137.464844 196.007812 137.464844 C 248.488281 137.464844 270.558594 114.828125 270.558594 79.460938 C 270.558594 43.546875 245.660156 22.179688 196.007812 22.179688 Z M 195.867188 51.058594 C 199.199219 51.042969 202.527344 51.234375 205.835938 51.636719 L 162.964844 94.507812 C 160.9375 89.921875 159.945312 84.941406 160.066406 79.925781 C 160.066406 62.5 168.84375 51.039062 195.867188 51.039062 Z M 196.007812 109.0625 C 192.796875 109.074219 189.589844 108.894531 186.398438 108.523438 L 229.347656 65.574219 C 231.300781 70.085938 232.234375 74.976562 232.085938 79.890625 C 232.085938 96.84375 224 109.042969 196.007812 109.042969 Z M 346.542969 93.902344 L 386.011719 93.902344 C 385.429688 96.640625 384.21875 99.207031 382.476562 101.398438 C 374.292969 108.0625 363.851562 111.308594 353.332031 110.449219 C 348.035156 111.015625 342.679688 110.4375 337.628906 108.753906 C 332.578125 107.070312 327.945312 104.320312 324.050781 100.691406 C 320.058594 94.835938 318.164062 87.808594 318.667969 80.742188 C 318.023438 73.335938 320.085938 65.949219 324.472656 59.949219 C 329.988281 53.71875 339.328125 51.03125 353.050781 51.03125 C 361.785156 50.308594 370.507812 52.550781 377.808594 57.398438 C 380.113281 59.226562 381.832031 61.683594 382.761719 64.472656 L 419.367188 64.472656 C 419.101562 59.878906 417.996094 55.371094 416.109375 51.175781 C 407.34375 33.347656 386.964844 22.738281 352.3125 22.738281 C 322.171875 22.738281 301.945312 31.933594 290.769531 45.800781 C 283.390625 55.816406 279.601562 68.027344 280.015625 80.464844 C 279.539062 93.179688 283.230469 105.703125 290.527344 116.125 C 301.566406 130.441406 321.230469 137.480469 344.859375 137.480469 C 360.570312 138.578125 376.171875 134.175781 388.992188 125.035156 L 389.988281 135.78125 L 420.394531 135.78125 L 420.394531 69.996094 L 346.542969 69.996094 Z M 506.703125 22.171875 C 457.761719 22.171875 432.007812 45.371094 432.007812 79.4375 C 432.007812 117.921875 459.023438 137.441406 506.703125 137.441406 C 559.191406 137.441406 581.261719 114.804688 581.261719 79.4375 C 581.261719 43.546875 556.363281 22.179688 506.703125 22.179688 Z M 506.570312 51.03125 C 509.8125 51.023438 513.054688 51.207031 516.277344 51.585938 L 473.574219 94.316406 C 471.609375 89.777344 470.652344 84.867188 470.769531 79.925781 C 470.738281 62.5 479.546875 51.039062 506.570312 51.039062 Z M 506.703125 109.035156 C 503.40625 109.050781 500.113281 108.859375 496.84375 108.464844 L 539.933594 65.363281 C 541.960938 69.9375 542.929688 74.90625 542.769531 79.90625 C 542.789062 96.84375 534.738281 109.042969 506.703125 109.042969 Z M 506.703125 109.035156 "/>
</g>
</svg>
