<?xml version="1.0" encoding="UTF-8"?>
<svg xmlns="http://www.w3.org/2000/svg" xmlns:xlink="http://www.w3.org/1999/xlink" width="228px" height="160px" viewBox="0 0 313 160" version="1.1">
<g id="surface1">
<path style=" stroke:none;fill-rule:nonzero;fill:rgb(22.352941%,25.490196%,28.627451%);fill-opacity:1;" d="M 8.089844 92.601562 L 16.957031 92.601562 L 16.957031 136.179688 L 8.089844 136.179688 Z M 8.089844 92.601562 "/>
<path style=" stroke:none;fill-rule:nonzero;fill:rgb(22.352941%,25.490196%,28.627451%);fill-opacity:1;" d="M 22.101562 121.25 C 22.09375 118.117188 23.015625 115.054688 24.746094 112.449219 C 26.476562 109.84375 28.941406 107.8125 31.824219 106.613281 C 34.707031 105.410156 37.882812 105.09375 40.945312 105.699219 C 44.007812 106.304688 46.824219 107.808594 49.035156 110.023438 C 51.246094 112.234375 52.75 115.050781 53.363281 118.121094 C 53.972656 121.191406 53.664062 124.375 52.46875 127.265625 C 51.277344 130.15625 49.253906 132.628906 46.65625 134.371094 C 44.058594 136.109375 41.007812 137.039062 37.886719 137.039062 C 35.808594 137.0625 33.746094 136.671875 31.824219 135.886719 C 29.898438 135.101562 28.152344 133.9375 26.683594 132.46875 C 25.210938 130.996094 24.050781 129.246094 23.261719 127.320312 C 22.476562 125.394531 22.082031 123.328125 22.101562 121.25 Z M 44.742188 121.25 C 44.707031 119.898438 44.277344 118.585938 43.5 117.480469 C 42.726562 116.371094 41.644531 115.519531 40.386719 115.027344 C 39.132812 114.535156 37.757812 114.421875 36.441406 114.707031 C 35.125 114.992188 33.917969 115.660156 32.976562 116.628906 C 32.035156 117.597656 31.398438 118.820312 31.148438 120.148438 C 30.898438 121.476562 31.042969 122.851562 31.566406 124.09375 C 32.09375 125.339844 32.972656 126.40625 34.09375 127.152344 C 35.21875 127.898438 36.535156 128.296875 37.886719 128.300781 C 38.808594 128.324219 39.726562 128.160156 40.582031 127.8125 C 41.4375 127.464844 42.210938 126.941406 42.855469 126.28125 C 43.5 125.617188 44 124.828125 44.324219 123.960938 C 44.648438 123.097656 44.792969 122.171875 44.742188 121.25 Z M 44.742188 121.25 "/>
<path style=" stroke:none;fill-rule:nonzero;fill:rgb(22.352941%,25.490196%,28.627451%);fill-opacity:1;" d="M 89.3125 106.316406 L 89.3125 134.699219 C 89.3125 144.742188 81.480469 148.976562 73.558594 148.976562 C 70.773438 149.183594 67.984375 148.621094 65.5 147.34375 C 63.011719 146.070312 60.921875 144.132812 59.460938 141.75 L 67.085938 137.335938 C 67.691406 138.558594 68.648438 139.570312 69.835938 140.242188 C 71.019531 140.910156 72.378906 141.210938 73.738281 141.097656 C 74.628906 141.246094 75.546875 141.1875 76.410156 140.925781 C 77.277344 140.664062 78.074219 140.207031 78.738281 139.589844 C 79.398438 138.972656 79.910156 138.207031 80.234375 137.359375 C 80.554688 136.511719 80.679688 135.601562 80.59375 134.699219 L 80.59375 131.941406 C 79.550781 133.230469 78.222656 134.25 76.710938 134.925781 C 75.203125 135.597656 73.554688 135.90625 71.90625 135.824219 C 67.890625 135.824219 64.042969 134.226562 61.203125 131.382812 C 58.367188 128.535156 56.769531 124.679688 56.769531 120.65625 C 56.769531 116.632812 58.367188 112.773438 61.203125 109.929688 C 64.042969 107.085938 67.890625 105.488281 71.90625 105.488281 C 73.554688 105.410156 75.199219 105.722656 76.707031 106.398438 C 78.214844 107.070312 79.546875 108.089844 80.59375 109.367188 L 80.59375 106.40625 Z M 80.59375 120.65625 C 80.652344 119.214844 80.28125 117.789062 79.523438 116.5625 C 78.769531 115.335938 77.664062 114.363281 76.351562 113.769531 C 75.042969 113.175781 73.582031 112.992188 72.164062 113.234375 C 70.746094 113.480469 69.433594 114.144531 68.398438 115.140625 C 67.359375 116.140625 66.640625 117.425781 66.339844 118.835938 C 66.035156 120.246094 66.160156 121.714844 66.695312 123.054688 C 67.230469 124.390625 68.15625 125.539062 69.347656 126.347656 C 70.539062 127.15625 71.945312 127.585938 73.382812 127.589844 C 74.320312 127.65625 75.265625 127.523438 76.148438 127.203125 C 77.035156 126.882812 77.84375 126.378906 78.523438 125.726562 C 79.203125 125.074219 79.738281 124.285156 80.09375 123.410156 C 80.449219 122.539062 80.621094 121.597656 80.59375 120.65625 Z M 80.59375 120.65625 "/>
<path style=" stroke:none;fill-rule:nonzero;fill:rgb(22.352941%,25.490196%,28.627451%);fill-opacity:1;" d="M 94.425781 121.25 C 94.421875 118.117188 95.339844 115.054688 97.070312 112.449219 C 98.804688 109.84375 101.265625 107.8125 104.148438 106.613281 C 107.03125 105.410156 110.207031 105.09375 113.269531 105.699219 C 116.335938 106.304688 119.148438 107.808594 121.359375 110.023438 C 123.570312 112.234375 125.078125 115.050781 125.6875 118.121094 C 126.300781 121.191406 125.988281 124.375 124.792969 127.265625 C 123.601562 130.15625 121.578125 132.628906 118.980469 134.371094 C 116.386719 136.109375 113.332031 137.039062 110.210938 137.039062 C 108.132812 137.0625 106.074219 136.671875 104.148438 135.886719 C 102.226562 135.101562 100.476562 133.9375 99.007812 132.46875 C 97.539062 130.996094 96.375 129.246094 95.589844 127.320312 C 94.800781 125.394531 94.40625 123.328125 94.425781 121.25 Z M 117.066406 121.25 C 117.03125 119.898438 116.601562 118.585938 115.828125 117.480469 C 115.050781 116.371094 113.96875 115.519531 112.714844 115.027344 C 111.457031 114.535156 110.085938 114.421875 108.765625 114.707031 C 107.449219 114.992188 106.242188 115.660156 105.300781 116.628906 C 104.359375 117.597656 103.726562 118.820312 103.472656 120.148438 C 103.222656 121.476562 103.371094 122.851562 103.894531 124.09375 C 104.417969 125.339844 105.296875 126.40625 106.417969 127.152344 C 107.542969 127.898438 108.863281 128.296875 110.210938 128.300781 C 111.128906 128.316406 112.039062 128.144531 112.886719 127.792969 C 113.734375 127.441406 114.503906 126.917969 115.140625 126.257812 C 115.777344 125.597656 116.273438 124.808594 116.59375 123.949219 C 116.917969 123.085938 117.058594 122.167969 117.007812 121.25 Z M 117.066406 121.25 "/>
<path style=" stroke:none;fill-rule:nonzero;fill:rgb(22.352941%,25.490196%,28.627451%);fill-opacity:1;" d="M 130.101562 98.320312 C 130.101562 97.253906 130.417969 96.210938 131.007812 95.324219 C 131.597656 94.4375 132.441406 93.746094 133.421875 93.335938 C 134.40625 92.929688 135.488281 92.824219 136.53125 93.03125 C 137.574219 93.238281 138.53125 93.75 139.285156 94.503906 C 140.039062 95.261719 140.550781 96.21875 140.757812 97.265625 C 140.964844 98.3125 140.859375 99.398438 140.453125 100.382812 C 140.042969 101.367188 139.355469 102.210938 138.46875 102.800781 C 137.585938 103.394531 136.546875 103.710938 135.480469 103.710938 C 134.058594 103.703125 132.691406 103.132812 131.6875 102.121094 C 130.679688 101.113281 130.109375 99.746094 130.101562 98.320312 Z M 131.019531 106.316406 L 139.886719 106.316406 L 139.886719 136.179688 L 131.019531 136.179688 Z M 131.019531 106.316406 "/>
<path style=" stroke:none;fill-rule:nonzero;fill:rgb(22.352941%,25.490196%,28.627451%);fill-opacity:1;" d="M 178.542969 121.25 C 178.652344 123.222656 178.371094 125.199219 177.710938 127.0625 C 177.054688 128.925781 176.035156 130.640625 174.714844 132.109375 C 173.394531 133.574219 171.796875 134.765625 170.011719 135.613281 C 168.230469 136.460938 166.296875 136.945312 164.328125 137.039062 C 162.675781 137.117188 161.023438 136.832031 159.492188 136.203125 C 157.957031 135.574219 156.582031 134.613281 155.460938 133.394531 L 155.460938 148.207031 L 146.59375 148.207031 L 146.59375 106.316406 L 155.460938 106.316406 L 155.460938 109.132812 C 156.582031 107.910156 157.957031 106.953125 159.492188 106.324219 C 161.023438 105.691406 162.675781 105.410156 164.328125 105.488281 C 166.296875 105.582031 168.226562 106.066406 170.003906 106.910156 C 171.785156 107.753906 173.382812 108.941406 174.703125 110.40625 C 176.023438 111.871094 177.042969 113.582031 177.703125 115.445312 C 178.363281 117.304688 178.648438 119.277344 178.542969 121.25 Z M 169.679688 121.25 C 169.644531 119.859375 169.203125 118.507812 168.410156 117.367188 C 167.617188 116.226562 166.507812 115.339844 165.21875 114.824219 C 163.929688 114.308594 162.519531 114.183594 161.160156 114.464844 C 159.800781 114.742188 158.550781 115.417969 157.570312 116.402344 C 156.589844 117.382812 155.917969 118.632812 155.636719 119.996094 C 155.359375 121.359375 155.484375 122.773438 156 124.066406 C 156.515625 125.359375 157.394531 126.46875 158.535156 127.265625 C 159.671875 128.058594 161.019531 128.5 162.40625 128.535156 C 163.375 128.597656 164.34375 128.449219 165.253906 128.105469 C 166.160156 127.761719 166.980469 127.226562 167.664062 126.535156 C 168.347656 125.84375 168.875 125.015625 169.210938 124.105469 C 169.550781 123.191406 169.6875 122.21875 169.617188 121.25 Z M 169.679688 121.25 "/>
<path style=" stroke:none;fill-rule:nonzero;fill:rgb(22.352941%,25.490196%,28.627451%);fill-opacity:1;" d="M 206.152344 127.234375 C 206.152344 134.105469 200.238281 137.039062 193.738281 137.039062 C 191.140625 137.269531 188.53125 136.714844 186.25 135.449219 C 183.972656 134.179688 182.121094 132.257812 180.9375 129.929688 L 188.683594 125.515625 C 188.996094 126.59375 189.671875 127.53125 190.589844 128.171875 C 191.507812 128.8125 192.621094 129.117188 193.738281 129.039062 C 195.894531 129.039062 196.960938 128.359375 196.960938 127.171875 C 196.960938 123.886719 182.179688 125.632812 182.179688 115.324219 C 182.179688 108.804688 187.679688 105.515625 194.003906 105.515625 C 196.335938 105.445312 198.648438 106 200.695312 107.128906 C 202.742188 108.253906 204.453125 109.90625 205.648438 111.917969 L 197.875 116.003906 C 197.53125 115.222656 196.96875 114.554688 196.253906 114.089844 C 195.542969 113.621094 194.707031 113.371094 193.855469 113.367188 C 192.320312 113.367188 191.371094 113.960938 191.371094 115.054688 C 191.492188 118.464844 206.152344 116.183594 206.152344 127.234375 Z M 206.152344 127.234375 "/>
<path style=" stroke:none;fill-rule:nonzero;fill:rgb(22.352941%,25.490196%,28.627451%);fill-opacity:1;" d="M 238.78125 106.316406 L 238.78125 136.179688 L 229.914062 136.179688 L 229.914062 133.394531 C 228.882812 134.632812 227.574219 135.605469 226.09375 136.242188 C 224.617188 136.875 223.007812 137.148438 221.402344 137.039062 C 215.492188 137.039062 210.257812 132.742188 210.257812 124.65625 L 210.257812 106.316406 L 219.125 106.316406 L 219.125 123.351562 C 219.046875 124.078125 219.132812 124.8125 219.375 125.5 C 219.613281 126.191406 220.003906 126.816406 220.515625 127.335938 C 221.027344 127.855469 221.648438 128.253906 222.335938 128.503906 C 223.019531 128.75 223.75 128.84375 224.476562 128.773438 C 227.726562 128.773438 230.003906 126.878906 230.003906 122.640625 L 230.003906 106.316406 Z M 238.78125 106.316406 "/>
<path style=" stroke:none;fill-rule:nonzero;fill:rgb(22.352941%,25.490196%,28.627451%);fill-opacity:1;" d="M 290.03125 117.871094 L 290.03125 136.179688 L 281.164062 136.179688 L 281.164062 118.640625 C 281.164062 115.679688 279.71875 113.722656 276.878906 113.722656 C 274.042969 113.722656 272.210938 115.828125 272.210938 119.351562 L 272.210938 136.179688 L 263.34375 136.179688 L 263.34375 118.640625 C 263.34375 115.679688 261.925781 113.722656 259.058594 113.722656 C 256.191406 113.722656 254.417969 115.828125 254.417969 119.351562 L 254.417969 136.179688 L 245.550781 136.179688 L 245.550781 106.316406 L 254.417969 106.316406 L 254.417969 109.074219 C 255.34375 107.855469 256.558594 106.890625 257.953125 106.265625 C 259.347656 105.636719 260.875 105.371094 262.398438 105.488281 C 263.925781 105.414062 265.449219 105.738281 266.816406 106.425781 C 268.183594 107.117188 269.351562 108.152344 270.199219 109.429688 C 271.191406 108.09375 272.5 107.03125 274.007812 106.34375 C 275.519531 105.652344 277.175781 105.359375 278.832031 105.488281 C 285.570312 105.488281 290.03125 110.40625 290.03125 117.871094 Z M 290.03125 117.871094 "/>
<path style=" stroke:none;fill-rule:nonzero;fill:rgb(22.352941%,25.490196%,28.627451%);fill-opacity:1;" d="M 297.601562 106.140625 C 301.257812 106.140625 304.21875 103.167969 304.21875 99.503906 C 304.21875 95.839844 301.257812 92.867188 297.601562 92.867188 C 293.941406 92.867188 290.980469 95.839844 290.980469 99.503906 C 290.980469 103.167969 293.941406 106.140625 297.601562 106.140625 Z M 297.601562 106.140625 "/>
<path style=" stroke:none;fill-rule:nonzero;fill:rgb(22.352941%,25.490196%,28.627451%);fill-opacity:1;" d="M 108.4375 69.996094 C 125.558594 69.996094 139.441406 56.082031 139.441406 38.917969 C 139.441406 21.757812 125.558594 7.84375 108.4375 7.84375 C 91.3125 7.84375 77.429688 21.757812 77.429688 38.917969 C 77.429688 56.082031 91.3125 69.996094 108.4375 69.996094 Z M 108.4375 69.996094 "/>
<path style=" stroke:none;fill-rule:nonzero;fill:rgb(22.352941%,25.490196%,28.627451%);fill-opacity:1;" d="M 177.746094 69.996094 C 194.871094 69.996094 208.75 56.082031 208.75 38.917969 C 208.75 21.757812 194.871094 7.84375 177.746094 7.84375 C 160.625 7.84375 146.742188 21.757812 146.742188 38.917969 C 146.742188 56.082031 160.625 69.996094 177.746094 69.996094 Z M 177.746094 69.996094 "/>
<path style=" stroke:none;fill-rule:nonzero;fill:rgb(22.352941%,25.490196%,28.627451%);fill-opacity:1;" d="M 70.132812 7.84375 L 8.152344 7.84375 L 8.152344 69.96875 L 70.132812 69.96875 Z M 70.132812 7.84375 "/>
</g>
</svg>
